<svg width="19" height="12" viewBox="0 0 19 12" fill="none" xmlns="http://www.w3.org/2000/svg">
<path d="M16.1088 11.1276C16.7613 11.8026 17.8413 11.8026 18.4938 11.1501C19.1687 10.4751 19.1687 9.41762 18.4938 8.76512L10.6863 0.912619C10.3713 0.597618 9.94376 0.417619 9.49376 0.417619C9.04377 0.417619 8.61627 0.597618 8.30127 0.912619L0.493778 8.76512C0.156279 9.08012 -0.00122052 9.50762 -0.00122055 9.93512C-0.00122059 10.3851 0.156279 10.8126 0.493778 11.1501C1.16878 11.8026 2.22628 11.8026 2.87877 11.1276L9.49376 4.49012L16.1088 11.1276Z" fill="#010101"/>
<path d="M16.1088 11.1276C16.7613 11.8026 17.8413 11.8026 18.4938 11.1501C19.1687 10.4751 19.1687 9.41762 18.4938 8.76512L10.6863 0.912619C10.3713 0.597618 9.94376 0.417619 9.49376 0.417619C9.04377 0.417619 8.61627 0.597618 8.30127 0.912619L0.493778 8.76512C0.156279 9.08012 -0.00122052 9.50762 -0.00122055 9.93512C-0.00122059 10.3851 0.156279 10.8126 0.493778 11.1501C1.16878 11.8026 2.22628 11.8026 2.87877 11.1276L9.49376 4.49012L16.1088 11.1276Z" fill="#010101"/>
</svg>
