<svg width="474" height="452" viewBox="0 0 474 452" fill="none" xmlns="http://www.w3.org/2000/svg">
<g clip-path="url(#clip0_12_3982)">
<rect width="473.241" height="452" rx="16" fill="white"/>
<rect x="-0.416992" y="-5.17712" width="474.418" height="81.2278" fill="#EEE9D2"/>
<path d="M47.1996 50.7406L34.8389 38.3798L47.1996 26.0191" stroke="#010101" stroke-width="2.35443" stroke-linecap="round" stroke-linejoin="round"/>
<path d="M167.586 47.3799V45.2919L174.258 38.9559C174.818 38.4279 175.234 37.9639 175.506 37.5639C175.778 37.1639 175.954 36.7959 176.034 36.4599C176.13 36.1079 176.178 35.7799 176.178 35.4759C176.178 34.7079 175.914 34.1159 175.386 33.6999C174.858 33.2679 174.082 33.0519 173.058 33.0519C172.242 33.0519 171.498 33.1959 170.826 33.4839C170.17 33.7719 169.602 34.2119 169.122 34.8039L166.938 33.1239C167.594 32.2439 168.474 31.5639 169.578 31.0839C170.698 30.5879 171.946 30.3399 173.322 30.3399C174.538 30.3399 175.594 30.5399 176.49 30.9399C177.402 31.3239 178.098 31.8759 178.578 32.5959C179.074 33.3159 179.322 34.1719 179.322 35.1639C179.322 35.7079 179.25 36.2519 179.106 36.7959C178.962 37.3239 178.69 37.8839 178.29 38.4759C177.89 39.0679 177.306 39.7319 176.538 40.4679L170.802 45.9159L170.154 44.7399H179.97V47.3799H167.586ZM187.435 30.3399C188.971 30.3399 190.275 30.6679 191.347 31.3239C192.435 31.9639 193.267 32.8999 193.843 34.1319C194.419 35.3639 194.707 36.8839 194.707 38.6919C194.707 40.6119 194.355 42.2359 193.651 43.5639C192.963 44.8919 192.003 45.8999 190.771 46.5879C189.539 47.2759 188.107 47.6199 186.475 47.6199C185.627 47.6199 184.819 47.5319 184.051 47.3559C183.283 47.1799 182.619 46.9079 182.059 46.5399L183.211 44.1879C183.675 44.4919 184.179 44.7079 184.723 44.8359C185.267 44.9479 185.827 45.0039 186.403 45.0039C187.987 45.0039 189.243 44.5159 190.171 43.5399C191.099 42.5639 191.563 41.1239 191.563 39.2199C191.563 38.9159 191.555 38.5639 191.539 38.1639C191.523 37.7479 191.467 37.3319 191.371 36.9159L192.331 37.9719C192.059 38.6279 191.667 39.1799 191.155 39.6279C190.643 40.0599 190.043 40.3879 189.355 40.6119C188.667 40.8359 187.907 40.9479 187.075 40.9479C185.987 40.9479 185.003 40.7399 184.123 40.3239C183.259 39.8919 182.571 39.2919 182.059 38.5239C181.547 37.7399 181.291 36.8279 181.291 35.7879C181.291 34.6679 181.563 33.7079 182.107 32.9079C182.651 32.0919 183.387 31.4599 184.315 31.0119C185.259 30.5639 186.299 30.3399 187.435 30.3399ZM187.603 32.7879C186.963 32.7879 186.395 32.9079 185.899 33.1479C185.403 33.3719 185.011 33.6999 184.723 34.1319C184.451 34.5479 184.315 35.0519 184.315 35.6439C184.315 36.5239 184.619 37.2199 185.227 37.7319C185.835 38.2439 186.651 38.4999 187.675 38.4999C188.347 38.4999 188.939 38.3799 189.451 38.1399C189.963 37.8839 190.363 37.5399 190.651 37.1079C190.939 36.6599 191.083 36.1639 191.083 35.6199C191.083 35.0919 190.947 34.6199 190.675 34.2039C190.403 33.7719 190.011 33.4279 189.499 33.1719C188.987 32.9159 188.355 32.7879 187.603 32.7879ZM207.267 47.6199C206.195 47.6199 205.203 47.4119 204.291 46.9959C203.395 46.5799 202.659 45.9799 202.083 45.1959L203.859 43.0599C204.323 43.6999 204.827 44.1799 205.371 44.4999C205.931 44.8199 206.539 44.9799 207.195 44.9799C208.939 44.9799 209.811 43.9479 209.811 41.8839V33.1959H203.835V30.5799H212.931V41.7159C212.931 43.6999 212.443 45.1799 211.467 46.1559C210.507 47.1319 209.107 47.6199 207.267 47.6199ZM222.443 47.5479C221.355 47.5479 220.395 47.3479 219.563 46.9479C218.731 46.5319 218.083 45.9079 217.619 45.0759C217.155 44.2279 216.923 43.1639 216.923 41.8839V34.5639H219.923V41.4759C219.923 42.6279 220.179 43.4919 220.691 44.0679C221.219 44.6279 221.963 44.9079 222.923 44.9079C223.627 44.9079 224.235 44.7639 224.747 44.4759C225.275 44.1879 225.683 43.7559 225.971 43.1799C226.275 42.6039 226.427 41.8919 226.427 41.0439V34.5639H229.427V47.3799H226.571V43.9239L227.075 44.9799C226.643 45.8119 226.011 46.4519 225.179 46.8999C224.347 47.3319 223.435 47.5479 222.443 47.5479ZM233.355 47.3799V29.5719H236.355V47.3799H233.355ZM241.348 52.2039C240.724 52.2039 240.1 52.0999 239.476 51.8919C238.852 51.6839 238.332 51.3959 237.916 51.0279L239.116 48.8199C239.42 49.0919 239.764 49.3079 240.148 49.4679C240.532 49.6279 240.924 49.7079 241.324 49.7079C241.868 49.7079 242.308 49.5719 242.644 49.2999C242.98 49.0279 243.292 48.5719 243.58 47.9319L244.324 46.2519L244.564 45.8919L249.412 34.5639H252.292L246.292 48.4119C245.892 49.3719 245.444 50.1319 244.948 50.6919C244.468 51.2519 243.924 51.6439 243.316 51.8679C242.724 52.0919 242.068 52.2039 241.348 52.2039ZM243.988 47.8359L238.204 34.5639H241.324L246.028 45.6279L243.988 47.8359ZM252.578 51.0039L253.97 45.6999L254.378 47.4759C253.818 47.4759 253.346 47.3079 252.962 46.9719C252.594 46.6199 252.41 46.1479 252.41 45.5559C252.41 44.9479 252.594 44.4679 252.962 44.1159C253.346 43.7479 253.81 43.5639 254.354 43.5639C254.914 43.5639 255.378 43.7479 255.746 44.1159C256.114 44.4839 256.298 44.9639 256.298 45.5559C256.298 45.7159 256.282 45.8919 256.25 46.0839C256.218 46.2599 256.162 46.4679 256.082 46.7079C256.018 46.9479 255.906 47.2519 255.746 47.6199L254.522 51.0039H252.578ZM258.336 47.3799V45.2919L265.008 38.9559C265.568 38.4279 265.984 37.9639 266.256 37.5639C266.528 37.1639 266.704 36.7959 266.784 36.4599C266.88 36.1079 266.928 35.7799 266.928 35.4759C266.928 34.7079 266.664 34.1159 266.136 33.6999C265.608 33.2679 264.832 33.0519 263.808 33.0519C262.992 33.0519 262.248 33.1959 261.576 33.4839C260.92 33.7719 260.352 34.2119 259.872 34.8039L257.688 33.1239C258.344 32.2439 259.224 31.5639 260.328 31.0839C261.448 30.5879 262.696 30.3399 264.072 30.3399C265.288 30.3399 266.344 30.5399 267.24 30.9399C268.152 31.3239 268.848 31.8759 269.328 32.5959C269.824 33.3159 270.072 34.1719 270.072 35.1639C270.072 35.7079 270 36.2519 269.856 36.7959C269.712 37.3239 269.44 37.8839 269.04 38.4759C268.64 39.0679 268.056 39.7319 267.288 40.4679L261.552 45.9159L260.904 44.7399H270.72V47.3799H258.336ZM279.529 47.6199C278.201 47.6199 277.001 47.2839 275.929 46.6119C274.873 45.9399 274.041 44.9639 273.433 43.6839C272.825 42.3879 272.521 40.8199 272.521 38.9799C272.521 37.1399 272.825 35.5799 273.433 34.2999C274.041 33.0039 274.873 32.0199 275.929 31.3479C277.001 30.6759 278.201 30.3399 279.529 30.3399C280.873 30.3399 282.073 30.6759 283.129 31.3479C284.185 32.0199 285.017 33.0039 285.625 34.2999C286.249 35.5799 286.561 37.1399 286.561 38.9799C286.561 40.8199 286.249 42.3879 285.625 43.6839C285.017 44.9639 284.185 45.9399 283.129 46.6119C282.073 47.2839 280.873 47.6199 279.529 47.6199ZM279.529 44.9079C280.313 44.9079 280.993 44.6999 281.569 44.2839C282.145 43.8519 282.593 43.1959 282.913 42.3159C283.249 41.4359 283.417 40.3239 283.417 38.9799C283.417 37.6199 283.249 36.5079 282.913 35.6439C282.593 34.7639 282.145 34.1159 281.569 33.6999C280.993 33.2679 280.313 33.0519 279.529 33.0519C278.777 33.0519 278.105 33.2679 277.513 33.6999C276.937 34.1159 276.481 34.7639 276.145 35.6439C275.825 36.5079 275.665 37.6199 275.665 38.9799C275.665 40.3239 275.825 41.4359 276.145 42.3159C276.481 43.1959 276.937 43.8519 277.513 44.2839C278.105 44.6999 278.777 44.9079 279.529 44.9079ZM288.43 47.3799V45.2919L295.102 38.9559C295.662 38.4279 296.078 37.9639 296.35 37.5639C296.622 37.1639 296.798 36.7959 296.878 36.4599C296.974 36.1079 297.022 35.7799 297.022 35.4759C297.022 34.7079 296.758 34.1159 296.23 33.6999C295.702 33.2679 294.926 33.0519 293.902 33.0519C293.086 33.0519 292.342 33.1959 291.67 33.4839C291.014 33.7719 290.446 34.2119 289.966 34.8039L287.782 33.1239C288.438 32.2439 289.318 31.5639 290.422 31.0839C291.542 30.5879 292.79 30.3399 294.166 30.3399C295.382 30.3399 296.438 30.5399 297.334 30.9399C298.246 31.3239 298.942 31.8759 299.422 32.5959C299.918 33.3159 300.166 34.1719 300.166 35.1639C300.166 35.7079 300.094 36.2519 299.95 36.7959C299.806 37.3239 299.534 37.8839 299.134 38.4759C298.734 39.0679 298.15 39.7319 297.382 40.4679L291.646 45.9159L290.998 44.7399H300.814V47.3799H288.43ZM302.023 43.5639V41.4039L310.303 30.5799H313.639L305.479 41.4039L303.919 40.9239H317.239V43.5639H302.023ZM311.239 47.3799V43.5639L311.335 40.9239V37.5399H314.263V47.3799H311.239Z" fill="#010101"/>
<path d="M428.343 50.7406L440.704 38.3798L428.343 26.0191" stroke="#010101" stroke-width="2.35443" stroke-linecap="round" stroke-linejoin="round"/>
<line x1="0.171158" y1="468.063" x2="0.171175" y2="76.0508" stroke="#4D4D4D" stroke-opacity="0.1" stroke-width="1.17722"/>
<mask id="path-7-inside-1_12_3982" fill="white">
<path d="M14.8857 94.8862H459.873V151.393H14.8857V94.8862Z"/>
</mask>
<path d="M459.873 150.922H14.8857V151.863H459.873V150.922Z" fill="#4D4D4D" mask="url(#path-7-inside-1_12_3982)"/>
<path d="M32.8509 130.299C31.7842 130.299 30.7642 130.139 29.7909 129.819C28.8176 129.486 28.0509 129.059 27.4909 128.539L28.2309 126.979C28.7642 127.446 29.4442 127.833 30.2709 128.139C31.0976 128.446 31.9576 128.599 32.8509 128.599C33.6642 128.599 34.3242 128.506 34.8309 128.319C35.3376 128.133 35.7109 127.879 35.9509 127.559C36.1909 127.226 36.3109 126.853 36.3109 126.439C36.3109 125.959 36.1509 125.573 35.8309 125.279C35.5242 124.986 35.1176 124.753 34.6109 124.579C34.1176 124.393 33.5709 124.233 32.9709 124.099C32.3709 123.966 31.7642 123.813 31.1509 123.639C30.5509 123.453 29.9976 123.219 29.4909 122.939C28.9976 122.659 28.5976 122.286 28.2909 121.819C27.9842 121.339 27.8309 120.726 27.8309 119.979C27.8309 119.259 28.0176 118.599 28.3909 117.999C28.7776 117.386 29.3642 116.899 30.1509 116.539C30.9509 116.166 31.9642 115.979 33.1909 115.979C34.0042 115.979 34.8109 116.086 35.6109 116.299C36.4109 116.513 37.1042 116.819 37.6909 117.219L37.0309 118.819C36.4309 118.419 35.7976 118.133 35.1309 117.959C34.4642 117.773 33.8176 117.679 33.1909 117.679C32.4042 117.679 31.7576 117.779 31.2509 117.979C30.7442 118.179 30.3709 118.446 30.1309 118.779C29.9042 119.113 29.7909 119.486 29.7909 119.899C29.7909 120.393 29.9442 120.786 30.2509 121.079C30.5709 121.373 30.9776 121.606 31.4709 121.779C31.9776 121.953 32.5309 122.113 33.1309 122.259C33.7309 122.393 34.3309 122.546 34.9309 122.719C35.5442 122.893 36.0976 123.119 36.5909 123.399C37.0976 123.679 37.5042 124.053 37.8109 124.519C38.1176 124.986 38.2709 125.586 38.2709 126.319C38.2709 127.026 38.0776 127.686 37.6909 128.299C37.3042 128.899 36.7042 129.386 35.8909 129.759C35.0909 130.119 34.0776 130.299 32.8509 130.299ZM45.3728 130.259C44.4661 130.259 43.6661 130.093 42.9728 129.759C42.2928 129.426 41.7594 128.919 41.3728 128.239C40.9994 127.546 40.8128 126.679 40.8128 125.639V119.539H42.7328V125.419C42.7328 126.459 42.9794 127.239 43.4728 127.759C43.9794 128.279 44.6861 128.539 45.5928 128.539C46.2594 128.539 46.8394 128.406 47.3328 128.139C47.8261 127.859 48.2061 127.459 48.4728 126.939C48.7394 126.406 48.8728 125.766 48.8728 125.019V119.539H50.7928V130.139H48.9728V127.279L49.2728 128.039C48.9261 128.746 48.4061 129.293 47.7128 129.679C47.0194 130.066 46.2394 130.259 45.3728 130.259ZM60.1079 119.439C60.9746 119.439 61.7346 119.606 62.3879 119.939C63.0546 120.273 63.5746 120.779 63.9479 121.459C64.3213 122.139 64.5079 122.999 64.5079 124.039V130.139H62.5879V124.259C62.5879 123.233 62.3346 122.459 61.8279 121.939C61.3346 121.419 60.6346 121.159 59.7279 121.159C59.0479 121.159 58.4546 121.293 57.9479 121.559C57.4413 121.826 57.0479 122.219 56.7679 122.739C56.5013 123.259 56.3679 123.906 56.3679 124.679V130.139H54.4479V119.539H56.2879V122.399L55.9879 121.639C56.3346 120.946 56.8679 120.406 57.5879 120.019C58.3079 119.633 59.1479 119.439 60.1079 119.439Z" fill="#010101"/>
<path d="M89.3402 130.139V116.139H90.9802L97.2602 126.719H96.3802L102.58 116.139H104.22L104.24 130.139H102.32L102.3 119.159H102.76L97.2402 128.439H96.3202L90.7602 119.159H91.2602V130.139H89.3402ZM112.702 130.259C111.635 130.259 110.688 130.026 109.862 129.559C109.035 129.093 108.382 128.453 107.902 127.639C107.422 126.813 107.182 125.879 107.182 124.839C107.182 123.786 107.422 122.853 107.902 122.039C108.382 121.226 109.035 120.593 109.862 120.139C110.688 119.673 111.635 119.439 112.702 119.439C113.755 119.439 114.695 119.673 115.522 120.139C116.362 120.593 117.015 121.226 117.482 122.039C117.962 122.839 118.202 123.773 118.202 124.839C118.202 125.893 117.962 126.826 117.482 127.639C117.015 128.453 116.362 129.093 115.522 129.559C114.695 130.026 113.755 130.259 112.702 130.259ZM112.702 128.579C113.382 128.579 113.988 128.426 114.522 128.119C115.068 127.813 115.495 127.379 115.802 126.819C116.108 126.246 116.262 125.586 116.262 124.839C116.262 124.079 116.108 123.426 115.802 122.879C115.495 122.319 115.068 121.886 114.522 121.579C113.988 121.273 113.382 121.119 112.702 121.119C112.022 121.119 111.415 121.273 110.882 121.579C110.348 121.886 109.922 122.319 109.602 122.879C109.282 123.426 109.122 124.079 109.122 124.839C109.122 125.586 109.282 126.246 109.602 126.819C109.922 127.379 110.348 127.813 110.882 128.119C111.415 128.426 112.022 128.579 112.702 128.579ZM126.517 119.439C127.384 119.439 128.144 119.606 128.797 119.939C129.464 120.273 129.984 120.779 130.357 121.459C130.73 122.139 130.917 122.999 130.917 124.039V130.139H128.997V124.259C128.997 123.233 128.744 122.459 128.237 121.939C127.744 121.419 127.044 121.159 126.137 121.159C125.457 121.159 124.864 121.293 124.357 121.559C123.85 121.826 123.457 122.219 123.177 122.739C122.91 123.259 122.777 123.906 122.777 124.679V130.139H120.857V119.539H122.697V122.399L122.397 121.639C122.744 120.946 123.277 120.406 123.997 120.019C124.717 119.633 125.557 119.439 126.517 119.439Z" fill="#010101"/>
<path d="M159.691 130.139V117.879H154.891V116.139H166.471V117.879H161.671V130.139H159.691ZM172.575 130.259C171.668 130.259 170.868 130.093 170.175 129.759C169.495 129.426 168.962 128.919 168.575 128.239C168.202 127.546 168.015 126.679 168.015 125.639V119.539H169.935V125.419C169.935 126.459 170.182 127.239 170.675 127.759C171.182 128.279 171.888 128.539 172.795 128.539C173.462 128.539 174.042 128.406 174.535 128.139C175.028 127.859 175.408 127.459 175.675 126.939C175.942 126.406 176.075 125.766 176.075 125.019V119.539H177.995V130.139H176.175V127.279L176.475 128.039C176.128 128.746 175.608 129.293 174.915 129.679C174.222 130.066 173.442 130.259 172.575 130.259ZM186.37 130.259C185.237 130.259 184.237 130.026 183.37 129.559C182.517 129.093 181.85 128.453 181.37 127.639C180.903 126.826 180.67 125.893 180.67 124.839C180.67 123.786 180.897 122.853 181.35 122.039C181.817 121.226 182.45 120.593 183.25 120.139C184.063 119.673 184.977 119.439 185.99 119.439C187.017 119.439 187.923 119.666 188.71 120.119C189.497 120.573 190.11 121.213 190.55 122.039C191.003 122.853 191.23 123.806 191.23 124.899C191.23 124.979 191.223 125.073 191.21 125.179C191.21 125.286 191.203 125.386 191.19 125.479H182.17V124.099H190.19L189.41 124.579C189.423 123.899 189.283 123.293 188.99 122.759C188.697 122.226 188.29 121.813 187.77 121.519C187.263 121.213 186.67 121.059 185.99 121.059C185.323 121.059 184.73 121.213 184.21 121.519C183.69 121.813 183.283 122.233 182.99 122.779C182.697 123.313 182.55 123.926 182.55 124.619V124.939C182.55 125.646 182.71 126.279 183.03 126.839C183.363 127.386 183.823 127.813 184.41 128.119C184.997 128.426 185.67 128.579 186.43 128.579C187.057 128.579 187.623 128.473 188.13 128.259C188.65 128.046 189.103 127.726 189.49 127.299L190.55 128.539C190.07 129.099 189.47 129.526 188.75 129.819C188.043 130.113 187.25 130.259 186.37 130.259Z" fill="#010101"/>
<path d="M218.7 130.139L214.02 116.139H216.08L220.38 129.059H219.34L223.8 116.139H225.64L230 129.059H229L233.36 116.139H235.26L230.58 130.139H228.48L224.4 118.159H224.94L220.84 130.139H218.7ZM241.346 130.259C240.212 130.259 239.212 130.026 238.346 129.559C237.492 129.093 236.826 128.453 236.346 127.639C235.879 126.826 235.646 125.893 235.646 124.839C235.646 123.786 235.872 122.853 236.326 122.039C236.792 121.226 237.426 120.593 238.226 120.139C239.039 119.673 239.952 119.439 240.966 119.439C241.992 119.439 242.899 119.666 243.686 120.119C244.472 120.573 245.086 121.213 245.526 122.039C245.979 122.853 246.206 123.806 246.206 124.899C246.206 124.979 246.199 125.073 246.186 125.179C246.186 125.286 246.179 125.386 246.166 125.479H237.146V124.099H245.166L244.386 124.579C244.399 123.899 244.259 123.293 243.966 122.759C243.672 122.226 243.266 121.813 242.746 121.519C242.239 121.213 241.646 121.059 240.966 121.059C240.299 121.059 239.706 121.213 239.186 121.519C238.666 121.813 238.259 122.233 237.966 122.779C237.672 123.313 237.526 123.926 237.526 124.619V124.939C237.526 125.646 237.686 126.279 238.006 126.839C238.339 127.386 238.799 127.813 239.386 128.119C239.972 128.426 240.646 128.579 241.406 128.579C242.032 128.579 242.599 128.473 243.106 128.259C243.626 128.046 244.079 127.726 244.466 127.299L245.526 128.539C245.046 129.099 244.446 129.526 243.726 129.819C243.019 130.113 242.226 130.259 241.346 130.259ZM253.252 130.259C252.225 130.259 251.305 130.033 250.492 129.579C249.692 129.126 249.058 128.493 248.592 127.679C248.125 126.866 247.892 125.919 247.892 124.839C247.892 123.759 248.125 122.819 248.592 122.019C249.058 121.206 249.692 120.573 250.492 120.119C251.305 119.666 252.225 119.439 253.252 119.439C254.145 119.439 254.952 119.639 255.672 120.039C256.392 120.439 256.965 121.039 257.392 121.839C257.832 122.639 258.052 123.639 258.052 124.839C258.052 126.039 257.838 127.039 257.412 127.839C256.998 128.639 256.432 129.246 255.712 129.659C254.992 130.059 254.172 130.259 253.252 130.259ZM253.412 128.579C254.078 128.579 254.678 128.426 255.212 128.119C255.758 127.813 256.185 127.379 256.492 126.819C256.812 126.246 256.972 125.586 256.972 124.839C256.972 124.079 256.812 123.426 256.492 122.879C256.185 122.319 255.758 121.886 255.212 121.579C254.678 121.273 254.078 121.119 253.412 121.119C252.732 121.119 252.125 121.273 251.592 121.579C251.058 121.886 250.632 122.319 250.312 122.879C249.992 123.426 249.832 124.079 249.832 124.839C249.832 125.586 249.992 126.246 250.312 126.819C250.632 127.379 251.058 127.813 251.592 128.119C252.125 128.426 252.732 128.579 253.412 128.579ZM257.032 130.139V127.279L257.152 124.819L256.952 122.359V115.299H258.872V130.139H257.032Z" fill="#010101"/>
<path d="M286.329 130.139V117.879H281.529V116.139H293.109V117.879H288.309V130.139H286.329ZM300.668 119.439C301.534 119.439 302.294 119.606 302.948 119.939C303.614 120.273 304.134 120.779 304.508 121.459C304.881 122.139 305.068 122.999 305.068 124.039V130.139H303.148V124.259C303.148 123.233 302.894 122.459 302.388 121.939C301.894 121.419 301.194 121.159 300.288 121.159C299.608 121.159 299.014 121.293 298.508 121.559C298.001 121.826 297.608 122.219 297.328 122.739C297.061 123.259 296.928 123.906 296.928 124.679V130.139H295.008V115.299H296.928V122.399L296.548 121.639C296.894 120.946 297.428 120.406 298.148 120.019C298.868 119.633 299.708 119.439 300.668 119.439ZM313.081 130.259C312.174 130.259 311.374 130.093 310.681 129.759C310.001 129.426 309.467 128.919 309.081 128.239C308.707 127.546 308.521 126.679 308.521 125.639V119.539H310.441V125.419C310.441 126.459 310.687 127.239 311.181 127.759C311.687 128.279 312.394 128.539 313.301 128.539C313.967 128.539 314.547 128.406 315.041 128.139C315.534 127.859 315.914 127.459 316.181 126.939C316.447 126.406 316.581 125.766 316.581 125.019V119.539H318.501V130.139H316.681V127.279L316.981 128.039C316.634 128.746 316.114 129.293 315.421 129.679C314.727 130.066 313.947 130.259 313.081 130.259Z" fill="#010101"/>
<path d="M354.919 122.759H362.139V124.479H354.919V122.759ZM355.119 130.139H353.119V116.139H362.999V117.879H355.119V130.139ZM365.339 130.139V119.539H367.179V122.419L366.999 121.699C367.292 120.966 367.785 120.406 368.479 120.019C369.172 119.633 370.025 119.439 371.039 119.439V121.299C370.959 121.286 370.879 121.279 370.799 121.279C370.732 121.279 370.665 121.279 370.599 121.279C369.572 121.279 368.759 121.586 368.159 122.199C367.559 122.813 367.259 123.699 367.259 124.859V130.139H365.339ZM373.405 130.139V119.539H375.325V130.139H373.405ZM374.365 117.499C373.992 117.499 373.678 117.379 373.425 117.139C373.185 116.899 373.065 116.606 373.065 116.259C373.065 115.899 373.185 115.599 373.425 115.359C373.678 115.119 373.992 114.999 374.365 114.999C374.738 114.999 375.045 115.119 375.285 115.359C375.538 115.586 375.665 115.873 375.665 116.219C375.665 116.579 375.545 116.886 375.305 117.139C375.065 117.379 374.752 117.499 374.365 117.499Z" fill="#010101"/>
<path d="M417.769 130.299C416.702 130.299 415.682 130.139 414.709 129.819C413.736 129.486 412.969 129.059 412.409 128.539L413.149 126.979C413.682 127.446 414.362 127.833 415.189 128.139C416.016 128.446 416.876 128.599 417.769 128.599C418.582 128.599 419.242 128.506 419.749 128.319C420.256 128.133 420.629 127.879 420.869 127.559C421.109 127.226 421.229 126.853 421.229 126.439C421.229 125.959 421.069 125.573 420.749 125.279C420.442 124.986 420.036 124.753 419.529 124.579C419.036 124.393 418.489 124.233 417.889 124.099C417.289 123.966 416.682 123.813 416.069 123.639C415.469 123.453 414.916 123.219 414.409 122.939C413.916 122.659 413.516 122.286 413.209 121.819C412.902 121.339 412.749 120.726 412.749 119.979C412.749 119.259 412.936 118.599 413.309 117.999C413.696 117.386 414.282 116.899 415.069 116.539C415.869 116.166 416.882 115.979 418.109 115.979C418.922 115.979 419.729 116.086 420.529 116.299C421.329 116.513 422.022 116.819 422.609 117.219L421.949 118.819C421.349 118.419 420.716 118.133 420.049 117.959C419.382 117.773 418.736 117.679 418.109 117.679C417.322 117.679 416.676 117.779 416.169 117.979C415.662 118.179 415.289 118.446 415.049 118.779C414.822 119.113 414.709 119.486 414.709 119.899C414.709 120.393 414.862 120.786 415.169 121.079C415.489 121.373 415.896 121.606 416.389 121.779C416.896 121.953 417.449 122.113 418.049 122.259C418.649 122.393 419.249 122.546 419.849 122.719C420.462 122.893 421.016 123.119 421.509 123.399C422.016 123.679 422.422 124.053 422.729 124.519C423.036 124.986 423.189 125.586 423.189 126.319C423.189 127.026 422.996 127.686 422.609 128.299C422.222 128.899 421.622 129.386 420.809 129.759C420.009 130.119 418.996 130.299 417.769 130.299ZM432.411 130.139V127.899L432.311 127.479V123.659C432.311 122.846 432.071 122.219 431.591 121.779C431.124 121.326 430.417 121.099 429.471 121.099C428.844 121.099 428.231 121.206 427.631 121.419C427.031 121.619 426.524 121.893 426.111 122.239L425.311 120.799C425.857 120.359 426.511 120.026 427.271 119.799C428.044 119.559 428.851 119.439 429.691 119.439C431.144 119.439 432.264 119.793 433.051 120.499C433.837 121.206 434.231 122.286 434.231 123.739V130.139H432.411ZM428.931 130.259C428.144 130.259 427.451 130.126 426.851 129.859C426.264 129.593 425.811 129.226 425.491 128.759C425.171 128.279 425.011 127.739 425.011 127.139C425.011 126.566 425.144 126.046 425.411 125.579C425.691 125.113 426.137 124.739 426.751 124.459C427.377 124.179 428.217 124.039 429.271 124.039H432.631V125.419H429.351C428.391 125.419 427.744 125.579 427.411 125.899C427.077 126.219 426.911 126.606 426.911 127.059C426.911 127.579 427.117 127.999 427.531 128.319C427.944 128.626 428.517 128.779 429.251 128.779C429.971 128.779 430.597 128.619 431.131 128.299C431.677 127.979 432.071 127.513 432.311 126.899L432.691 128.219C432.437 128.846 431.991 129.346 431.351 129.719C430.711 130.079 429.904 130.259 428.931 130.259ZM441.424 130.259C440.357 130.259 439.531 129.973 438.944 129.399C438.357 128.826 438.064 128.006 438.064 126.939V117.219H439.984V126.859C439.984 127.433 440.124 127.873 440.404 128.179C440.697 128.486 441.111 128.639 441.644 128.639C442.244 128.639 442.744 128.473 443.144 128.139L443.744 129.519C443.451 129.773 443.097 129.959 442.684 130.079C442.284 130.199 441.864 130.259 441.424 130.259ZM436.264 121.119V119.539H443.024V121.119H436.264Z" fill="#010101"/>
<path d="M34.9509 186.646V185.626L40.7709 179.926C41.3042 179.406 41.7042 178.952 41.9709 178.566C42.2376 178.166 42.4176 177.792 42.5109 177.446C42.6042 177.099 42.6509 176.772 42.6509 176.466C42.6509 175.652 42.3709 175.012 41.8109 174.546C41.2642 174.079 40.4509 173.846 39.3709 173.846C38.5442 173.846 37.8109 173.972 37.1709 174.226C36.5442 174.479 36.0042 174.872 35.5509 175.406L34.5309 174.526C35.0776 173.886 35.7776 173.392 36.6309 173.046C37.4842 172.699 38.4376 172.526 39.4909 172.526C40.4376 172.526 41.2576 172.679 41.9509 172.986C42.6442 173.279 43.1776 173.712 43.5509 174.286C43.9376 174.859 44.1309 175.532 44.1309 176.306C44.1309 176.759 44.0642 177.206 43.9309 177.646C43.8109 178.086 43.5842 178.552 43.2509 179.046C42.9309 179.526 42.4576 180.072 41.8309 180.686L36.4909 185.926L36.0909 185.366H44.7709V186.646H34.9509ZM51.8981 186.766C50.7781 186.766 49.8114 186.606 48.9981 186.286C48.1981 185.966 47.5781 185.506 47.1381 184.906C46.7114 184.292 46.4981 183.572 46.4981 182.746C46.4981 181.946 46.7048 181.266 47.1181 180.706C47.5448 180.132 48.1581 179.692 48.9581 179.386C49.7714 179.079 50.7514 178.926 51.8981 178.926C53.0314 178.926 54.0048 179.079 54.8181 179.386C55.6314 179.692 56.2514 180.132 56.6781 180.706C57.1181 181.266 57.3381 181.946 57.3381 182.746C57.3381 183.572 57.1181 184.292 56.6781 184.906C56.2381 185.506 55.6114 185.966 54.7981 186.286C53.9848 186.606 53.0181 186.766 51.8981 186.766ZM51.8981 185.546C53.1381 185.546 54.1048 185.292 54.7981 184.786C55.5048 184.279 55.8581 183.592 55.8581 182.726C55.8581 181.859 55.5048 181.179 54.7981 180.686C54.1048 180.179 53.1381 179.926 51.8981 179.926C50.6581 179.926 49.6914 180.179 48.9981 180.686C48.3048 181.179 47.9581 181.859 47.9581 182.726C47.9581 183.592 48.3048 184.279 48.9981 184.786C49.6914 185.292 50.6581 185.546 51.8981 185.546ZM51.8981 179.746C50.8581 179.746 49.9714 179.606 49.2381 179.326C48.5181 179.046 47.9648 178.646 47.5781 178.126C47.1914 177.592 46.9981 176.959 46.9981 176.226C46.9981 175.452 47.1981 174.792 47.5981 174.246C48.0114 173.686 48.5848 173.259 49.3181 172.966C50.0514 172.672 50.9114 172.526 51.8981 172.526C52.8848 172.526 53.7448 172.672 54.4781 172.966C55.2248 173.259 55.8048 173.686 56.2181 174.246C56.6314 174.792 56.8381 175.452 56.8381 176.226C56.8381 176.959 56.6448 177.592 56.2581 178.126C55.8714 178.646 55.3048 179.046 54.5581 179.326C53.8248 179.606 52.9381 179.746 51.8981 179.746ZM51.8981 178.786C52.9914 178.786 53.8448 178.559 54.4581 178.106C55.0714 177.652 55.3781 177.046 55.3781 176.286C55.3781 175.486 55.0581 174.866 54.4181 174.426C53.7914 173.972 52.9514 173.746 51.8981 173.746C50.8448 173.746 50.0048 173.972 49.3781 174.426C48.7514 174.866 48.4381 175.479 48.4381 176.266C48.4381 177.039 48.7381 177.652 49.3381 178.106C49.9514 178.559 50.8048 178.786 51.8981 178.786Z" fill="#AFAFAF"/>
<path d="M99.0202 186.646V185.626L104.84 179.926C105.374 179.406 105.774 178.952 106.04 178.566C106.307 178.166 106.487 177.792 106.58 177.446C106.674 177.099 106.72 176.772 106.72 176.466C106.72 175.652 106.44 175.012 105.88 174.546C105.334 174.079 104.52 173.846 103.44 173.846C102.614 173.846 101.88 173.972 101.24 174.226C100.614 174.479 100.074 174.872 99.6202 175.406L98.6002 174.526C99.1469 173.886 99.8469 173.392 100.7 173.046C101.554 172.699 102.507 172.526 103.56 172.526C104.507 172.526 105.327 172.679 106.02 172.986C106.714 173.279 107.247 173.712 107.62 174.286C108.007 174.859 108.2 175.532 108.2 176.306C108.2 176.759 108.134 177.206 108 177.646C107.88 178.086 107.654 178.552 107.32 179.046C107 179.526 106.527 180.072 105.9 180.686L100.56 185.926L100.16 185.366H108.84V186.646H99.0202ZM115.007 172.526C116.247 172.526 117.294 172.806 118.147 173.366C119.001 173.912 119.647 174.706 120.087 175.746C120.527 176.786 120.747 178.046 120.747 179.526C120.747 181.099 120.474 182.426 119.927 183.506C119.394 184.586 118.647 185.399 117.687 185.946C116.727 186.492 115.614 186.766 114.347 186.766C113.721 186.766 113.121 186.706 112.547 186.586C111.987 186.466 111.481 186.272 111.027 186.006L111.607 184.846C111.967 185.086 112.381 185.259 112.847 185.366C113.327 185.459 113.821 185.506 114.327 185.506C115.834 185.506 117.034 185.026 117.927 184.066C118.834 183.106 119.287 181.672 119.287 179.766C119.287 179.459 119.267 179.092 119.227 178.666C119.201 178.239 119.127 177.812 119.007 177.386L119.507 177.766C119.374 178.459 119.087 179.052 118.647 179.546C118.221 180.026 117.687 180.392 117.047 180.646C116.421 180.899 115.721 181.026 114.947 181.026C114.027 181.026 113.207 180.852 112.487 180.506C111.781 180.159 111.227 179.672 110.827 179.046C110.427 178.419 110.227 177.679 110.227 176.826C110.227 175.946 110.434 175.186 110.847 174.546C111.261 173.906 111.827 173.412 112.547 173.066C113.281 172.706 114.101 172.526 115.007 172.526ZM115.067 173.746C114.401 173.746 113.807 173.872 113.287 174.126C112.781 174.366 112.381 174.712 112.087 175.166C111.794 175.619 111.647 176.159 111.647 176.786C111.647 177.706 111.961 178.439 112.587 178.986C113.227 179.532 114.087 179.806 115.167 179.806C115.887 179.806 116.514 179.672 117.047 179.406C117.594 179.139 118.014 178.772 118.307 178.306C118.614 177.839 118.767 177.319 118.767 176.746C118.767 176.226 118.627 175.739 118.347 175.286C118.067 174.832 117.654 174.466 117.107 174.186C116.561 173.892 115.881 173.746 115.067 173.746Z" fill="#AFAFAF"/>
<path d="M166.531 186.766C165.517 186.766 164.557 186.606 163.651 186.286C162.757 185.952 162.037 185.512 161.491 184.966L162.191 183.826C162.644 184.292 163.251 184.679 164.011 184.986C164.784 185.292 165.624 185.446 166.531 185.446C167.691 185.446 168.577 185.192 169.191 184.686C169.817 184.179 170.131 183.499 170.131 182.646C170.131 181.792 169.824 181.112 169.211 180.606C168.611 180.099 167.657 179.846 166.351 179.846H165.351V178.786L169.671 173.366L169.871 173.926H162.071V172.646H171.071V173.666L166.751 179.086L166.051 178.626H166.591C168.271 178.626 169.524 178.999 170.351 179.746C171.191 180.492 171.611 181.452 171.611 182.626C171.611 183.412 171.424 184.119 171.051 184.746C170.677 185.372 170.111 185.866 169.351 186.226C168.604 186.586 167.664 186.766 166.531 186.766ZM179.22 186.766C178.14 186.766 177.18 186.486 176.34 185.926C175.5 185.352 174.84 184.539 174.36 183.486C173.88 182.419 173.64 181.139 173.64 179.646C173.64 178.152 173.88 176.879 174.36 175.826C174.84 174.759 175.5 173.946 176.34 173.386C177.18 172.812 178.14 172.526 179.22 172.526C180.3 172.526 181.26 172.812 182.1 173.386C182.94 173.946 183.6 174.759 184.08 175.826C184.573 176.879 184.82 178.152 184.82 179.646C184.82 181.139 184.573 182.419 184.08 183.486C183.6 184.539 182.94 185.352 182.1 185.926C181.26 186.486 180.3 186.766 179.22 186.766ZM179.22 185.446C180.046 185.446 180.766 185.226 181.38 184.786C181.993 184.332 182.473 183.679 182.82 182.826C183.166 181.959 183.34 180.899 183.34 179.646C183.34 178.392 183.166 177.339 182.82 176.486C182.473 175.619 181.993 174.966 181.38 174.526C180.766 174.072 180.046 173.846 179.22 173.846C178.42 173.846 177.706 174.072 177.08 174.526C176.453 174.966 175.966 175.619 175.62 176.486C175.273 177.339 175.1 178.392 175.1 179.646C175.1 180.899 175.273 181.959 175.62 182.826C175.966 183.679 176.453 184.332 177.08 184.786C177.706 185.226 178.42 185.446 179.22 185.446Z" fill="#AFAFAF"/>
<path d="M233.1 186.766C232.087 186.766 231.127 186.606 230.22 186.286C229.327 185.952 228.607 185.512 228.06 184.966L228.76 183.826C229.213 184.292 229.82 184.679 230.58 184.986C231.353 185.292 232.193 185.446 233.1 185.446C234.26 185.446 235.147 185.192 235.76 184.686C236.387 184.179 236.7 183.499 236.7 182.646C236.7 181.792 236.393 181.112 235.78 180.606C235.18 180.099 234.227 179.846 232.92 179.846H231.92V178.786L236.24 173.366L236.44 173.926H228.64V172.646H237.64V173.666L233.32 179.086L232.62 178.626H233.16C234.84 178.626 236.093 178.999 236.92 179.746C237.76 180.492 238.18 181.452 238.18 182.626C238.18 183.412 237.993 184.119 237.62 184.746C237.247 185.372 236.68 185.866 235.92 186.226C235.173 186.586 234.233 186.766 233.1 186.766ZM242.649 186.646V173.246L243.289 173.926H239.349V172.646H244.089V186.646H242.649Z" fill="#AFAFAF"/>
<path opacity="0.8" d="M297.069 186.766C295.989 186.766 295.029 186.486 294.189 185.926C293.349 185.352 292.689 184.539 292.209 183.486C291.729 182.419 291.489 181.139 291.489 179.646C291.489 178.152 291.729 176.879 292.209 175.826C292.689 174.759 293.349 173.946 294.189 173.386C295.029 172.812 295.989 172.526 297.069 172.526C298.149 172.526 299.109 172.812 299.949 173.386C300.789 173.946 301.449 174.759 301.929 175.826C302.423 176.879 302.669 178.152 302.669 179.646C302.669 181.139 302.423 182.419 301.929 183.486C301.449 184.539 300.789 185.352 299.949 185.926C299.109 186.486 298.149 186.766 297.069 186.766ZM297.069 185.446C297.896 185.446 298.616 185.226 299.229 184.786C299.843 184.332 300.323 183.679 300.669 182.826C301.016 181.959 301.189 180.899 301.189 179.646C301.189 178.392 301.016 177.339 300.669 176.486C300.323 175.619 299.843 174.966 299.229 174.526C298.616 174.072 297.896 173.846 297.069 173.846C296.269 173.846 295.556 174.072 294.929 174.526C294.303 174.966 293.816 175.619 293.469 176.486C293.123 177.339 292.949 178.392 292.949 179.646C292.949 180.899 293.123 181.959 293.469 182.826C293.816 183.679 294.303 184.332 294.929 184.786C295.556 185.226 296.269 185.446 297.069 185.446ZM307.171 186.646V173.246L307.811 173.926H303.871V172.646H308.611V186.646H307.171Z" fill="#120C0C"/>
<path opacity="0.8" d="M358.639 186.766C357.559 186.766 356.599 186.486 355.759 185.926C354.919 185.352 354.259 184.539 353.779 183.486C353.299 182.419 353.059 181.139 353.059 179.646C353.059 178.152 353.299 176.879 353.779 175.826C354.259 174.759 354.919 173.946 355.759 173.386C356.599 172.812 357.559 172.526 358.639 172.526C359.719 172.526 360.679 172.812 361.519 173.386C362.359 173.946 363.019 174.759 363.499 175.826C363.992 176.879 364.239 178.152 364.239 179.646C364.239 181.139 363.992 182.419 363.499 183.486C363.019 184.539 362.359 185.352 361.519 185.926C360.679 186.486 359.719 186.766 358.639 186.766ZM358.639 185.446C359.465 185.446 360.185 185.226 360.799 184.786C361.412 184.332 361.892 183.679 362.239 182.826C362.585 181.959 362.759 180.899 362.759 179.646C362.759 178.392 362.585 177.339 362.239 176.486C361.892 175.619 361.412 174.966 360.799 174.526C360.185 174.072 359.465 173.846 358.639 173.846C357.839 173.846 357.125 174.072 356.499 174.526C355.872 174.966 355.385 175.619 355.039 176.486C354.692 177.339 354.519 178.392 354.519 179.646C354.519 180.899 354.692 181.959 355.039 182.826C355.385 183.679 355.872 184.332 356.499 184.786C357.125 185.226 357.839 185.446 358.639 185.446ZM366.041 186.646V185.626L371.861 179.926C372.394 179.406 372.794 178.952 373.061 178.566C373.327 178.166 373.507 177.792 373.601 177.446C373.694 177.099 373.741 176.772 373.741 176.466C373.741 175.652 373.461 175.012 372.901 174.546C372.354 174.079 371.541 173.846 370.461 173.846C369.634 173.846 368.901 173.972 368.261 174.226C367.634 174.479 367.094 174.872 366.641 175.406L365.621 174.526C366.167 173.886 366.867 173.392 367.721 173.046C368.574 172.699 369.527 172.526 370.581 172.526C371.527 172.526 372.347 172.679 373.041 172.986C373.734 173.279 374.267 173.712 374.641 174.286C375.027 174.859 375.221 175.532 375.221 176.306C375.221 176.759 375.154 177.206 375.021 177.646C374.901 178.086 374.674 178.552 374.341 179.046C374.021 179.526 373.547 180.072 372.921 180.686L367.581 185.926L367.181 185.366H375.861V186.646H366.041Z" fill="#120C0C"/>
<path opacity="0.8" d="M422.209 186.766C421.129 186.766 420.169 186.486 419.329 185.926C418.489 185.352 417.829 184.539 417.349 183.486C416.869 182.419 416.629 181.139 416.629 179.646C416.629 178.152 416.869 176.879 417.349 175.826C417.829 174.759 418.489 173.946 419.329 173.386C420.169 172.812 421.129 172.526 422.209 172.526C423.289 172.526 424.249 172.812 425.089 173.386C425.929 173.946 426.589 174.759 427.069 175.826C427.562 176.879 427.809 178.152 427.809 179.646C427.809 181.139 427.562 182.419 427.069 183.486C426.589 184.539 425.929 185.352 425.089 185.926C424.249 186.486 423.289 186.766 422.209 186.766ZM422.209 185.446C423.036 185.446 423.756 185.226 424.369 184.786C424.982 184.332 425.462 183.679 425.809 182.826C426.156 181.959 426.329 180.899 426.329 179.646C426.329 178.392 426.156 177.339 425.809 176.486C425.462 175.619 424.982 174.966 424.369 174.526C423.756 174.072 423.036 173.846 422.209 173.846C421.409 173.846 420.696 174.072 420.069 174.526C419.442 174.966 418.956 175.619 418.609 176.486C418.262 177.339 418.089 178.392 418.089 179.646C418.089 180.899 418.262 181.959 418.609 182.826C418.956 183.679 419.442 184.332 420.069 184.786C420.696 185.226 421.409 185.446 422.209 185.446ZM433.856 186.766C432.842 186.766 431.882 186.606 430.976 186.286C430.082 185.952 429.362 185.512 428.816 184.966L429.516 183.826C429.969 184.292 430.576 184.679 431.336 184.986C432.109 185.292 432.949 185.446 433.856 185.446C435.016 185.446 435.902 185.192 436.516 184.686C437.142 184.179 437.456 183.499 437.456 182.646C437.456 181.792 437.149 181.112 436.536 180.606C435.936 180.099 434.982 179.846 433.676 179.846H432.676V178.786L436.996 173.366L437.196 173.926H429.396V172.646H438.396V173.666L434.076 179.086L433.376 178.626H433.916C435.596 178.626 436.849 178.999 437.676 179.746C438.516 180.492 438.936 181.452 438.936 182.626C438.936 183.412 438.749 184.119 438.376 184.746C438.002 185.372 437.436 185.866 436.676 186.226C435.929 186.586 434.989 186.766 433.856 186.766Z" fill="#120C0C"/>
<path d="M39.7909 243.272C38.7109 243.272 37.7509 242.992 36.9109 242.432C36.0709 241.859 35.4109 241.045 34.9309 239.992C34.4509 238.925 34.2109 237.645 34.2109 236.152C34.2109 234.659 34.4509 233.385 34.9309 232.332C35.4109 231.265 36.0709 230.452 36.9109 229.892C37.7509 229.319 38.7109 229.032 39.7909 229.032C40.8709 229.032 41.8309 229.319 42.6709 229.892C43.5109 230.452 44.1709 231.265 44.6509 232.332C45.1442 233.385 45.3909 234.659 45.3909 236.152C45.3909 237.645 45.1442 238.925 44.6509 239.992C44.1709 241.045 43.5109 241.859 42.6709 242.432C41.8309 242.992 40.8709 243.272 39.7909 243.272ZM39.7909 241.952C40.6176 241.952 41.3376 241.732 41.9509 241.292C42.5642 240.839 43.0442 240.185 43.3909 239.332C43.7376 238.465 43.9109 237.405 43.9109 236.152C43.9109 234.899 43.7376 233.845 43.3909 232.992C43.0442 232.125 42.5642 231.472 41.9509 231.032C41.3376 230.579 40.6176 230.352 39.7909 230.352C38.9909 230.352 38.2776 230.579 37.6509 231.032C37.0242 231.472 36.5376 232.125 36.1909 232.992C35.8442 233.845 35.6709 234.899 35.6709 236.152C35.6709 237.405 35.8442 238.465 36.1909 239.332C36.5376 240.185 37.0242 240.839 37.6509 241.292C38.2776 241.732 38.9909 241.952 39.7909 241.952ZM47.2131 239.472V238.432L54.6331 229.152H56.2331L48.8731 238.432L48.0931 238.192H59.3531V239.472H47.2131ZM55.1131 243.152V239.472L55.1531 238.192V234.952H56.5531V243.152H55.1131Z" fill="#AFAFAF"/>
<path opacity="0.8" d="M104.36 243.272C103.28 243.272 102.32 242.992 101.48 242.432C100.64 241.859 99.9802 241.045 99.5002 239.992C99.0202 238.925 98.7802 237.645 98.7802 236.152C98.7802 234.659 99.0202 233.385 99.5002 232.332C99.9802 231.265 100.64 230.452 101.48 229.892C102.32 229.319 103.28 229.032 104.36 229.032C105.44 229.032 106.4 229.319 107.24 229.892C108.08 230.452 108.74 231.265 109.22 232.332C109.714 233.385 109.96 234.659 109.96 236.152C109.96 237.645 109.714 238.925 109.22 239.992C108.74 241.045 108.08 241.859 107.24 242.432C106.4 242.992 105.44 243.272 104.36 243.272ZM104.36 241.952C105.187 241.952 105.907 241.732 106.52 241.292C107.134 240.839 107.614 240.185 107.96 239.332C108.307 238.465 108.48 237.405 108.48 236.152C108.48 234.899 108.307 233.845 107.96 232.992C107.614 232.125 107.134 231.472 106.52 231.032C105.907 230.579 105.187 230.352 104.36 230.352C103.56 230.352 102.847 230.579 102.22 231.032C101.594 231.472 101.107 232.125 100.76 232.992C100.414 233.845 100.24 234.899 100.24 236.152C100.24 237.405 100.414 238.465 100.76 239.332C101.107 240.185 101.594 240.839 102.22 241.292C102.847 241.732 103.56 241.952 104.36 241.952ZM116.442 243.272C115.442 243.272 114.489 243.112 113.582 242.792C112.676 242.459 111.956 242.019 111.422 241.472L112.122 240.332C112.562 240.799 113.162 241.185 113.922 241.492C114.696 241.799 115.529 241.952 116.422 241.952C117.609 241.952 118.509 241.692 119.122 241.172C119.749 240.639 120.062 239.945 120.062 239.092C120.062 238.492 119.916 237.979 119.622 237.552C119.342 237.112 118.862 236.772 118.182 236.532C117.502 236.292 116.569 236.172 115.382 236.172H112.402L113.122 229.152H120.782V230.432H113.702L114.442 229.732L113.822 235.612L113.082 234.892H115.702C117.116 234.892 118.249 235.065 119.102 235.412C119.956 235.759 120.569 236.245 120.942 236.872C121.329 237.485 121.522 238.205 121.522 239.032C121.522 239.819 121.336 240.539 120.962 241.192C120.589 241.832 120.029 242.339 119.282 242.712C118.536 243.085 117.589 243.272 116.442 243.272Z" fill="#120C0C"/>
<path opacity="0.8" d="M167.431 243.272C166.351 243.272 165.391 242.992 164.551 242.432C163.711 241.859 163.051 241.045 162.571 239.992C162.091 238.925 161.851 237.645 161.851 236.152C161.851 234.659 162.091 233.385 162.571 232.332C163.051 231.265 163.711 230.452 164.551 229.892C165.391 229.319 166.351 229.032 167.431 229.032C168.511 229.032 169.471 229.319 170.311 229.892C171.151 230.452 171.811 231.265 172.291 232.332C172.784 233.385 173.031 234.659 173.031 236.152C173.031 237.645 172.784 238.925 172.291 239.992C171.811 241.045 171.151 241.859 170.311 242.432C169.471 242.992 168.511 243.272 167.431 243.272ZM167.431 241.952C168.257 241.952 168.977 241.732 169.591 241.292C170.204 240.839 170.684 240.185 171.031 239.332C171.377 238.465 171.551 237.405 171.551 236.152C171.551 234.899 171.377 233.845 171.031 232.992C170.684 232.125 170.204 231.472 169.591 231.032C168.977 230.579 168.257 230.352 167.431 230.352C166.631 230.352 165.917 230.579 165.291 231.032C164.664 231.472 164.177 232.125 163.831 232.992C163.484 233.845 163.311 234.899 163.311 236.152C163.311 237.405 163.484 238.465 163.831 239.332C164.177 240.185 164.664 240.839 165.291 241.292C165.917 241.732 166.631 241.952 167.431 241.952ZM180.833 243.272C179.593 243.272 178.546 242.999 177.693 242.452C176.839 241.892 176.193 241.092 175.753 240.052C175.313 238.999 175.093 237.739 175.093 236.272C175.093 234.685 175.359 233.359 175.893 232.292C176.439 231.212 177.193 230.399 178.153 229.852C179.113 229.305 180.226 229.032 181.493 229.032C182.119 229.032 182.719 229.092 183.293 229.212C183.866 229.332 184.373 229.525 184.813 229.792L184.233 230.952C183.873 230.712 183.459 230.545 182.993 230.452C182.526 230.345 182.033 230.292 181.513 230.292C180.006 230.292 178.799 230.772 177.893 231.732C176.999 232.692 176.553 234.125 176.553 236.032C176.553 236.325 176.566 236.692 176.593 237.132C176.633 237.559 176.713 237.985 176.833 238.412L176.333 238.032C176.479 237.339 176.766 236.752 177.193 236.272C177.619 235.779 178.153 235.405 178.793 235.152C179.433 234.899 180.133 234.772 180.893 234.772C181.826 234.772 182.646 234.945 183.353 235.292C184.059 235.639 184.613 236.125 185.013 236.752C185.413 237.379 185.613 238.119 185.613 238.972C185.613 239.839 185.406 240.599 184.993 241.252C184.579 241.892 184.006 242.392 183.273 242.752C182.553 243.099 181.739 243.272 180.833 243.272ZM180.773 242.052C181.439 242.052 182.026 241.932 182.533 241.692C183.053 241.439 183.459 241.085 183.753 240.632C184.046 240.165 184.193 239.625 184.193 239.012C184.193 238.092 183.873 237.359 183.233 236.812C182.606 236.265 181.753 235.992 180.673 235.992C179.953 235.992 179.326 236.125 178.793 236.392C178.259 236.659 177.839 237.025 177.533 237.492C177.226 237.945 177.073 238.465 177.073 239.052C177.073 239.559 177.213 240.045 177.493 240.512C177.773 240.965 178.186 241.339 178.733 241.632C179.293 241.912 179.973 242.052 180.773 242.052Z" fill="#120C0C"/>
<path opacity="0.8" d="M231.5 243.272C230.42 243.272 229.46 242.992 228.62 242.432C227.78 241.859 227.12 241.045 226.64 239.992C226.16 238.925 225.92 237.645 225.92 236.152C225.92 234.659 226.16 233.385 226.64 232.332C227.12 231.265 227.78 230.452 228.62 229.892C229.46 229.319 230.42 229.032 231.5 229.032C232.58 229.032 233.54 229.319 234.38 229.892C235.22 230.452 235.88 231.265 236.36 232.332C236.853 233.385 237.1 234.659 237.1 236.152C237.1 237.645 236.853 238.925 236.36 239.992C235.88 241.045 235.22 241.859 234.38 242.432C233.54 242.992 232.58 243.272 231.5 243.272ZM231.5 241.952C232.327 241.952 233.047 241.732 233.66 241.292C234.273 240.839 234.753 240.185 235.1 239.332C235.447 238.465 235.62 237.405 235.62 236.152C235.62 234.899 235.447 233.845 235.1 232.992C234.753 232.125 234.273 231.472 233.66 231.032C233.047 230.579 232.327 230.352 231.5 230.352C230.7 230.352 229.987 230.579 229.36 231.032C228.733 231.472 228.247 232.125 227.9 232.992C227.553 233.845 227.38 234.899 227.38 236.152C227.38 237.405 227.553 238.465 227.9 239.332C228.247 240.185 228.733 240.839 229.36 241.292C229.987 241.732 230.7 241.952 231.5 241.952ZM241.466 243.152L247.506 229.792L247.946 230.432H239.286L240.026 229.732V233.052H238.606V229.152H248.886V230.172L243.026 243.152H241.466Z" fill="#120C0C"/>
<path opacity="0.8" d="M294.569 243.272C293.489 243.272 292.529 242.992 291.689 242.432C290.849 241.859 290.189 241.045 289.709 239.992C289.229 238.925 288.989 237.645 288.989 236.152C288.989 234.659 289.229 233.385 289.709 232.332C290.189 231.265 290.849 230.452 291.689 229.892C292.529 229.319 293.489 229.032 294.569 229.032C295.649 229.032 296.609 229.319 297.449 229.892C298.289 230.452 298.949 231.265 299.429 232.332C299.923 233.385 300.169 234.659 300.169 236.152C300.169 237.645 299.923 238.925 299.429 239.992C298.949 241.045 298.289 241.859 297.449 242.432C296.609 242.992 295.649 243.272 294.569 243.272ZM294.569 241.952C295.396 241.952 296.116 241.732 296.729 241.292C297.343 240.839 297.823 240.185 298.169 239.332C298.516 238.465 298.689 237.405 298.689 236.152C298.689 234.899 298.516 233.845 298.169 232.992C297.823 232.125 297.343 231.472 296.729 231.032C296.116 230.579 295.396 230.352 294.569 230.352C293.769 230.352 293.056 230.579 292.429 231.032C291.803 231.472 291.316 232.125 290.969 232.992C290.623 233.845 290.449 234.899 290.449 236.152C290.449 237.405 290.623 238.465 290.969 239.332C291.316 240.185 291.803 240.839 292.429 241.292C293.056 241.732 293.769 241.952 294.569 241.952ZM307.551 243.272C306.431 243.272 305.465 243.112 304.651 242.792C303.851 242.472 303.231 242.012 302.791 241.412C302.365 240.799 302.151 240.079 302.151 239.252C302.151 238.452 302.358 237.772 302.771 237.212C303.198 236.639 303.811 236.199 304.611 235.892C305.425 235.585 306.405 235.432 307.551 235.432C308.685 235.432 309.658 235.585 310.471 235.892C311.285 236.199 311.905 236.639 312.331 237.212C312.771 237.772 312.991 238.452 312.991 239.252C312.991 240.079 312.771 240.799 312.331 241.412C311.891 242.012 311.265 242.472 310.451 242.792C309.638 243.112 308.671 243.272 307.551 243.272ZM307.551 242.052C308.791 242.052 309.758 241.799 310.451 241.292C311.158 240.785 311.511 240.099 311.511 239.232C311.511 238.365 311.158 237.685 310.451 237.192C309.758 236.685 308.791 236.432 307.551 236.432C306.311 236.432 305.345 236.685 304.651 237.192C303.958 237.685 303.611 238.365 303.611 239.232C303.611 240.099 303.958 240.785 304.651 241.292C305.345 241.799 306.311 242.052 307.551 242.052ZM307.551 236.252C306.511 236.252 305.625 236.112 304.891 235.832C304.171 235.552 303.618 235.152 303.231 234.632C302.845 234.099 302.651 233.465 302.651 232.732C302.651 231.959 302.851 231.299 303.251 230.752C303.665 230.192 304.238 229.765 304.971 229.472C305.705 229.179 306.565 229.032 307.551 229.032C308.538 229.032 309.398 229.179 310.131 229.472C310.878 229.765 311.458 230.192 311.871 230.752C312.285 231.299 312.491 231.959 312.491 232.732C312.491 233.465 312.298 234.099 311.911 234.632C311.525 235.152 310.958 235.552 310.211 235.832C309.478 236.112 308.591 236.252 307.551 236.252ZM307.551 235.292C308.645 235.292 309.498 235.065 310.111 234.612C310.725 234.159 311.031 233.552 311.031 232.792C311.031 231.992 310.711 231.372 310.071 230.932C309.445 230.479 308.605 230.252 307.551 230.252C306.498 230.252 305.658 230.479 305.031 230.932C304.405 231.372 304.091 231.985 304.091 232.772C304.091 233.545 304.391 234.159 304.991 234.612C305.605 235.065 306.458 235.292 307.551 235.292Z" fill="#120C0C"/>
<path opacity="0.8" d="M358.139 243.272C357.059 243.272 356.099 242.992 355.259 242.432C354.419 241.859 353.759 241.045 353.279 239.992C352.799 238.925 352.559 237.645 352.559 236.152C352.559 234.659 352.799 233.385 353.279 232.332C353.759 231.265 354.419 230.452 355.259 229.892C356.099 229.319 357.059 229.032 358.139 229.032C359.219 229.032 360.179 229.319 361.019 229.892C361.859 230.452 362.519 231.265 362.999 232.332C363.492 233.385 363.739 234.659 363.739 236.152C363.739 237.645 363.492 238.925 362.999 239.992C362.519 241.045 361.859 241.859 361.019 242.432C360.179 242.992 359.219 243.272 358.139 243.272ZM358.139 241.952C358.965 241.952 359.685 241.732 360.299 241.292C360.912 240.839 361.392 240.185 361.739 239.332C362.085 238.465 362.259 237.405 362.259 236.152C362.259 234.899 362.085 233.845 361.739 232.992C361.392 232.125 360.912 231.472 360.299 231.032C359.685 230.579 358.965 230.352 358.139 230.352C357.339 230.352 356.625 230.579 355.999 231.032C355.372 231.472 354.885 232.125 354.539 232.992C354.192 233.845 354.019 234.899 354.019 236.152C354.019 237.405 354.192 238.465 354.539 239.332C354.885 240.185 355.372 240.839 355.999 241.292C356.625 241.732 357.339 241.952 358.139 241.952ZM370.161 229.032C371.401 229.032 372.447 229.312 373.301 229.872C374.154 230.419 374.801 231.212 375.241 232.252C375.681 233.292 375.901 234.552 375.901 236.032C375.901 237.605 375.627 238.932 375.081 240.012C374.547 241.092 373.801 241.905 372.841 242.452C371.881 242.999 370.767 243.272 369.501 243.272C368.874 243.272 368.274 243.212 367.701 243.092C367.141 242.972 366.634 242.779 366.181 242.512L366.761 241.352C367.121 241.592 367.534 241.765 368.001 241.872C368.481 241.965 368.974 242.012 369.481 242.012C370.987 242.012 372.187 241.532 373.081 240.572C373.987 239.612 374.441 238.179 374.441 236.272C374.441 235.965 374.421 235.599 374.381 235.172C374.354 234.745 374.281 234.319 374.161 233.892L374.661 234.272C374.527 234.965 374.241 235.559 373.801 236.052C373.374 236.532 372.841 236.899 372.201 237.152C371.574 237.405 370.874 237.532 370.101 237.532C369.181 237.532 368.361 237.359 367.641 237.012C366.934 236.665 366.381 236.179 365.981 235.552C365.581 234.925 365.381 234.185 365.381 233.332C365.381 232.452 365.587 231.692 366.001 231.052C366.414 230.412 366.981 229.919 367.701 229.572C368.434 229.212 369.254 229.032 370.161 229.032ZM370.221 230.252C369.554 230.252 368.961 230.379 368.441 230.632C367.934 230.872 367.534 231.219 367.241 231.672C366.947 232.125 366.801 232.665 366.801 233.292C366.801 234.212 367.114 234.945 367.741 235.492C368.381 236.039 369.241 236.312 370.321 236.312C371.041 236.312 371.667 236.179 372.201 235.912C372.747 235.645 373.167 235.279 373.461 234.812C373.767 234.345 373.921 233.825 373.921 233.252C373.921 232.732 373.781 232.245 373.501 231.792C373.221 231.339 372.807 230.972 372.261 230.692C371.714 230.399 371.034 230.252 370.221 230.252Z" fill="#120C0C"/>
<path opacity="0.8" d="M421.069 243.152V229.752L421.709 230.432H417.769V229.152H422.509V243.152H421.069ZM431.435 243.272C430.355 243.272 429.395 242.992 428.555 242.432C427.715 241.859 427.055 241.045 426.575 239.992C426.095 238.925 425.855 237.645 425.855 236.152C425.855 234.659 426.095 233.385 426.575 232.332C427.055 231.265 427.715 230.452 428.555 229.892C429.395 229.319 430.355 229.032 431.435 229.032C432.515 229.032 433.475 229.319 434.315 229.892C435.155 230.452 435.815 231.265 436.295 232.332C436.789 233.385 437.035 234.659 437.035 236.152C437.035 237.645 436.789 238.925 436.295 239.992C435.815 241.045 435.155 241.859 434.315 242.432C433.475 242.992 432.515 243.272 431.435 243.272ZM431.435 241.952C432.262 241.952 432.982 241.732 433.595 241.292C434.209 240.839 434.689 240.185 435.035 239.332C435.382 238.465 435.555 237.405 435.555 236.152C435.555 234.899 435.382 233.845 435.035 232.992C434.689 232.125 434.209 231.472 433.595 231.032C432.982 230.579 432.262 230.352 431.435 230.352C430.635 230.352 429.922 230.579 429.295 231.032C428.669 231.472 428.182 232.125 427.835 232.992C427.489 233.845 427.315 234.899 427.315 236.152C427.315 237.405 427.489 238.465 427.835 239.332C428.182 240.185 428.669 240.839 429.295 241.292C429.922 241.732 430.635 241.952 431.435 241.952Z" fill="#120C0C"/>
<path opacity="0.8" d="M42.6509 299.658V286.258L43.2909 286.938H39.3509V285.658H44.0909V299.658H42.6509ZM49.8775 299.658V286.258L50.5175 286.938H46.5775V285.658H51.3175V299.658H49.8775Z" fill="#120C0C"/>
<path opacity="0.8" d="M104.22 299.658V286.258L104.86 286.938H100.92V285.658H105.66V299.658H104.22ZM108.747 299.658V298.638L114.567 292.938C115.1 292.418 115.5 291.965 115.767 291.578C116.033 291.178 116.213 290.805 116.307 290.458C116.4 290.112 116.447 289.785 116.447 289.478C116.447 288.665 116.167 288.025 115.607 287.558C115.06 287.092 114.247 286.858 113.167 286.858C112.34 286.858 111.607 286.985 110.967 287.238C110.34 287.492 109.8 287.885 109.347 288.418L108.327 287.538C108.873 286.898 109.573 286.405 110.427 286.058C111.28 285.712 112.233 285.538 113.287 285.538C114.233 285.538 115.053 285.692 115.747 285.998C116.44 286.292 116.973 286.725 117.347 287.298C117.733 287.872 117.927 288.545 117.927 289.318C117.927 289.772 117.86 290.218 117.727 290.658C117.607 291.098 117.38 291.565 117.047 292.058C116.727 292.538 116.253 293.085 115.627 293.698L110.287 298.938L109.887 298.378H118.567V299.658H108.747Z" fill="#120C0C"/>
<path opacity="0.8" d="M167.791 299.658V286.258L168.431 286.938H164.491V285.658H169.231V299.658H167.791ZM176.757 299.778C175.744 299.778 174.784 299.618 173.877 299.298C172.984 298.965 172.264 298.525 171.717 297.978L172.417 296.838C172.87 297.305 173.477 297.692 174.237 297.998C175.01 298.305 175.85 298.458 176.757 298.458C177.917 298.458 178.804 298.205 179.417 297.698C180.044 297.192 180.357 296.512 180.357 295.658C180.357 294.805 180.05 294.125 179.437 293.618C178.837 293.112 177.884 292.858 176.577 292.858H175.577V291.798L179.897 286.378L180.097 286.938H172.297V285.658H181.297V286.678L176.977 292.098L176.277 291.638H176.817C178.497 291.638 179.75 292.012 180.577 292.758C181.417 293.505 181.837 294.465 181.837 295.638C181.837 296.425 181.65 297.132 181.277 297.758C180.904 298.385 180.337 298.878 179.577 299.238C178.83 299.598 177.89 299.778 176.757 299.778Z" fill="#120C0C"/>
<path opacity="0.8" d="M230.36 299.658V286.258L231 286.938H227.06V285.658H231.8V299.658H230.36ZM234.906 295.978V294.938L242.326 285.658H243.926L236.566 294.938L235.786 294.698H247.046V295.978H234.906ZM242.806 299.658V295.978L242.846 294.698V291.458H244.246V299.658H242.806Z" fill="#120C0C"/>
<path opacity="0.8" d="M294.929 299.658V286.258L295.569 286.938H291.629V285.658H296.369V299.658H294.929ZM304.136 299.778C303.136 299.778 302.182 299.618 301.276 299.298C300.369 298.965 299.649 298.525 299.116 297.978L299.816 296.838C300.256 297.305 300.856 297.692 301.616 297.998C302.389 298.305 303.222 298.458 304.116 298.458C305.302 298.458 306.202 298.198 306.816 297.678C307.442 297.145 307.756 296.452 307.756 295.598C307.756 294.998 307.609 294.485 307.316 294.058C307.036 293.618 306.556 293.278 305.876 293.038C305.196 292.798 304.262 292.678 303.076 292.678H300.096L300.816 285.658H308.476V286.938H301.396L302.136 286.238L301.516 292.118L300.776 291.398H303.396C304.809 291.398 305.942 291.572 306.796 291.918C307.649 292.265 308.262 292.752 308.636 293.378C309.022 293.992 309.216 294.712 309.216 295.538C309.216 296.325 309.029 297.045 308.656 297.698C308.282 298.338 307.722 298.845 306.976 299.218C306.229 299.592 305.282 299.778 304.136 299.778Z" fill="#120C0C"/>
<path opacity="0.8" d="M357.999 299.658V286.258L358.639 286.938H354.699V285.658H359.439V299.658H357.999ZM368.525 299.778C367.285 299.778 366.238 299.505 365.385 298.958C364.532 298.398 363.885 297.598 363.445 296.558C363.005 295.505 362.785 294.245 362.785 292.778C362.785 291.192 363.052 289.865 363.585 288.798C364.132 287.718 364.885 286.905 365.845 286.358C366.805 285.812 367.918 285.538 369.185 285.538C369.812 285.538 370.412 285.598 370.985 285.718C371.558 285.838 372.065 286.032 372.505 286.298L371.925 287.458C371.565 287.218 371.152 287.052 370.685 286.958C370.218 286.852 369.725 286.798 369.205 286.798C367.698 286.798 366.492 287.278 365.585 288.238C364.692 289.198 364.245 290.632 364.245 292.538C364.245 292.832 364.258 293.198 364.285 293.638C364.325 294.065 364.405 294.492 364.525 294.918L364.025 294.538C364.172 293.845 364.458 293.258 364.885 292.778C365.312 292.285 365.845 291.912 366.485 291.658C367.125 291.405 367.825 291.278 368.585 291.278C369.518 291.278 370.338 291.452 371.045 291.798C371.752 292.145 372.305 292.632 372.705 293.258C373.105 293.885 373.305 294.625 373.305 295.478C373.305 296.345 373.098 297.105 372.685 297.758C372.272 298.398 371.698 298.898 370.965 299.258C370.245 299.605 369.432 299.778 368.525 299.778ZM368.465 298.558C369.132 298.558 369.718 298.438 370.225 298.198C370.745 297.945 371.152 297.592 371.445 297.138C371.738 296.672 371.885 296.132 371.885 295.518C371.885 294.598 371.565 293.865 370.925 293.318C370.298 292.772 369.445 292.498 368.365 292.498C367.645 292.498 367.018 292.632 366.485 292.898C365.952 293.165 365.532 293.532 365.225 293.998C364.918 294.452 364.765 294.972 364.765 295.558C364.765 296.065 364.905 296.552 365.185 297.018C365.465 297.472 365.878 297.845 366.425 298.138C366.985 298.418 367.665 298.558 368.465 298.558Z" fill="#120C0C"/>
<path opacity="0.8" d="M421.569 299.658V286.258L422.209 286.938H418.269V285.658H423.009V299.658H421.569ZM428.815 299.658L434.855 286.298L435.295 286.938H426.635L427.375 286.238V289.558H425.955V285.658H436.235V286.678L430.375 299.658H428.815Z" fill="#120C0C"/>
<path opacity="0.8" d="M40.1509 356.165V342.765L40.7909 343.445H36.8509V342.165H41.5909V356.165H40.1509ZM50.2575 356.285C49.1375 356.285 48.1708 356.125 47.3575 355.805C46.5575 355.485 45.9375 355.025 45.4975 354.425C45.0708 353.811 44.8575 353.091 44.8575 352.265C44.8575 351.465 45.0641 350.785 45.4775 350.225C45.9041 349.651 46.5175 349.211 47.3175 348.905C48.1308 348.598 49.1108 348.445 50.2575 348.445C51.3908 348.445 52.3641 348.598 53.1775 348.905C53.9908 349.211 54.6108 349.651 55.0375 350.225C55.4775 350.785 55.6975 351.465 55.6975 352.265C55.6975 353.091 55.4775 353.811 55.0375 354.425C54.5975 355.025 53.9708 355.485 53.1575 355.805C52.3441 356.125 51.3775 356.285 50.2575 356.285ZM50.2575 355.065C51.4975 355.065 52.4641 354.811 53.1575 354.305C53.8641 353.798 54.2175 353.111 54.2175 352.245C54.2175 351.378 53.8641 350.698 53.1575 350.205C52.4641 349.698 51.4975 349.445 50.2575 349.445C49.0175 349.445 48.0508 349.698 47.3575 350.205C46.6641 350.698 46.3175 351.378 46.3175 352.245C46.3175 353.111 46.6641 353.798 47.3575 354.305C48.0508 354.811 49.0175 355.065 50.2575 355.065ZM50.2575 349.265C49.2175 349.265 48.3308 349.125 47.5975 348.845C46.8775 348.565 46.3241 348.165 45.9375 347.645C45.5508 347.111 45.3575 346.478 45.3575 345.745C45.3575 344.971 45.5575 344.311 45.9575 343.765C46.3708 343.205 46.9441 342.778 47.6775 342.485C48.4108 342.191 49.2708 342.045 50.2575 342.045C51.2441 342.045 52.1041 342.191 52.8375 342.485C53.5841 342.778 54.1641 343.205 54.5775 343.765C54.9908 344.311 55.1975 344.971 55.1975 345.745C55.1975 346.478 55.0041 347.111 54.6175 347.645C54.2308 348.165 53.6641 348.565 52.9175 348.845C52.1841 349.125 51.2975 349.265 50.2575 349.265ZM50.2575 348.305C51.3508 348.305 52.2041 348.078 52.8175 347.625C53.4308 347.171 53.7375 346.565 53.7375 345.805C53.7375 345.005 53.4175 344.385 52.7775 343.945C52.1508 343.491 51.3108 343.265 50.2575 343.265C49.2041 343.265 48.3641 343.491 47.7375 343.945C47.1108 344.385 46.7975 344.998 46.7975 345.785C46.7975 346.558 47.0975 347.171 47.6975 347.625C48.3108 348.078 49.1641 348.305 50.2575 348.305Z" fill="#120C0C"/>
<path opacity="0.8" d="M103.72 356.165V342.765L104.36 343.445H100.42V342.165H105.16V356.165H103.72ZM112.867 342.045C114.107 342.045 115.153 342.325 116.007 342.885C116.86 343.431 117.507 344.225 117.947 345.265C118.387 346.305 118.607 347.565 118.607 349.045C118.607 350.618 118.333 351.945 117.787 353.025C117.253 354.105 116.507 354.918 115.547 355.465C114.587 356.011 113.473 356.285 112.207 356.285C111.58 356.285 110.98 356.225 110.407 356.105C109.847 355.985 109.34 355.791 108.887 355.525L109.467 354.365C109.827 354.605 110.24 354.778 110.707 354.885C111.187 354.978 111.68 355.025 112.187 355.025C113.693 355.025 114.893 354.545 115.787 353.585C116.693 352.625 117.147 351.191 117.147 349.285C117.147 348.978 117.127 348.611 117.087 348.185C117.06 347.758 116.987 347.331 116.867 346.905L117.367 347.285C117.233 347.978 116.947 348.571 116.507 349.065C116.08 349.545 115.547 349.911 114.907 350.165C114.28 350.418 113.58 350.545 112.807 350.545C111.887 350.545 111.067 350.371 110.347 350.025C109.64 349.678 109.087 349.191 108.687 348.565C108.287 347.938 108.087 347.198 108.087 346.345C108.087 345.465 108.293 344.705 108.707 344.065C109.12 343.425 109.687 342.931 110.407 342.585C111.14 342.225 111.96 342.045 112.867 342.045ZM112.927 343.265C112.26 343.265 111.667 343.391 111.147 343.645C110.64 343.885 110.24 344.231 109.947 344.685C109.653 345.138 109.507 345.678 109.507 346.305C109.507 347.225 109.82 347.958 110.447 348.505C111.087 349.051 111.947 349.325 113.027 349.325C113.747 349.325 114.373 349.191 114.907 348.925C115.453 348.658 115.873 348.291 116.167 347.825C116.473 347.358 116.627 346.838 116.627 346.265C116.627 345.745 116.487 345.258 116.207 344.805C115.927 344.351 115.513 343.985 114.967 343.705C114.42 343.411 113.74 343.265 112.927 343.265Z" fill="#120C0C"/>
<path opacity="0.8" d="M162.091 356.165V355.145L167.911 349.445C168.444 348.925 168.844 348.471 169.111 348.085C169.377 347.685 169.557 347.311 169.651 346.965C169.744 346.618 169.791 346.291 169.791 345.985C169.791 345.171 169.511 344.531 168.951 344.065C168.404 343.598 167.591 343.365 166.511 343.365C165.684 343.365 164.951 343.491 164.311 343.745C163.684 343.998 163.144 344.391 162.691 344.925L161.671 344.045C162.217 343.405 162.917 342.911 163.771 342.565C164.624 342.218 165.577 342.045 166.631 342.045C167.577 342.045 168.397 342.198 169.091 342.505C169.784 342.798 170.317 343.231 170.691 343.805C171.077 344.378 171.271 345.051 171.271 345.825C171.271 346.278 171.204 346.725 171.071 347.165C170.951 347.605 170.724 348.071 170.391 348.565C170.071 349.045 169.597 349.591 168.971 350.205L163.631 355.445L163.231 354.885H171.911V356.165H162.091ZM179.259 356.285C178.179 356.285 177.219 356.005 176.379 355.445C175.539 354.871 174.879 354.058 174.399 353.005C173.919 351.938 173.679 350.658 173.679 349.165C173.679 347.671 173.919 346.398 174.399 345.345C174.879 344.278 175.539 343.465 176.379 342.905C177.219 342.331 178.179 342.045 179.259 342.045C180.339 342.045 181.299 342.331 182.139 342.905C182.979 343.465 183.639 344.278 184.119 345.345C184.612 346.398 184.859 347.671 184.859 349.165C184.859 350.658 184.612 351.938 184.119 353.005C183.639 354.058 182.979 354.871 182.139 355.445C181.299 356.005 180.339 356.285 179.259 356.285ZM179.259 354.965C180.085 354.965 180.805 354.745 181.419 354.305C182.032 353.851 182.512 353.198 182.859 352.345C183.205 351.478 183.379 350.418 183.379 349.165C183.379 347.911 183.205 346.858 182.859 346.005C182.512 345.138 182.032 344.485 181.419 344.045C180.805 343.591 180.085 343.365 179.259 343.365C178.459 343.365 177.745 343.591 177.119 344.045C176.492 344.485 176.005 345.138 175.659 346.005C175.312 346.858 175.139 347.911 175.139 349.165C175.139 350.418 175.312 351.478 175.659 352.345C176.005 353.198 176.492 353.851 177.119 354.305C177.745 354.745 178.459 354.965 179.259 354.965Z" fill="#120C0C"/>
<path opacity="0.8" d="M228.66 356.165V355.145L234.48 349.445C235.013 348.925 235.413 348.471 235.68 348.085C235.947 347.685 236.127 347.311 236.22 346.965C236.313 346.618 236.36 346.291 236.36 345.985C236.36 345.171 236.08 344.531 235.52 344.065C234.973 343.598 234.16 343.365 233.08 343.365C232.253 343.365 231.52 343.491 230.88 343.745C230.253 343.998 229.713 344.391 229.26 344.925L228.24 344.045C228.787 343.405 229.487 342.911 230.34 342.565C231.193 342.218 232.147 342.045 233.2 342.045C234.147 342.045 234.967 342.198 235.66 342.505C236.353 342.798 236.887 343.231 237.26 343.805C237.647 344.378 237.84 345.051 237.84 345.825C237.84 346.278 237.773 346.725 237.64 347.165C237.52 347.605 237.293 348.071 236.96 348.565C236.64 349.045 236.167 349.591 235.54 350.205L230.2 355.445L229.8 354.885H238.48V356.165H228.66ZM242.727 356.165V342.765L243.367 343.445H239.427V342.165H244.167V356.165H242.727Z" fill="#120C0C"/>
<path opacity="0.8" d="M290.229 356.165V355.145L296.049 349.445C296.583 348.925 296.983 348.471 297.249 348.085C297.516 347.685 297.696 347.311 297.789 346.965C297.883 346.618 297.929 346.291 297.929 345.985C297.929 345.171 297.649 344.531 297.089 344.065C296.543 343.598 295.729 343.365 294.649 343.365C293.823 343.365 293.089 343.491 292.449 343.745C291.823 343.998 291.283 344.391 290.829 344.925L289.809 344.045C290.356 343.405 291.056 342.911 291.909 342.565C292.763 342.218 293.716 342.045 294.769 342.045C295.716 342.045 296.536 342.198 297.229 342.505C297.923 342.798 298.456 343.231 298.829 343.805C299.216 344.378 299.409 345.051 299.409 345.825C299.409 346.278 299.343 346.725 299.209 347.165C299.089 347.605 298.863 348.071 298.529 348.565C298.209 349.045 297.736 349.591 297.109 350.205L291.769 355.445L291.369 354.885H300.049V356.165H290.229ZM301.596 356.165V355.145L307.416 349.445C307.95 348.925 308.35 348.471 308.616 348.085C308.883 347.685 309.063 347.311 309.156 346.965C309.25 346.618 309.296 346.291 309.296 345.985C309.296 345.171 309.016 344.531 308.456 344.065C307.91 343.598 307.096 343.365 306.016 343.365C305.19 343.365 304.456 343.491 303.816 343.745C303.19 343.998 302.65 344.391 302.196 344.925L301.176 344.045C301.723 343.405 302.423 342.911 303.276 342.565C304.13 342.218 305.083 342.045 306.136 342.045C307.083 342.045 307.903 342.198 308.596 342.505C309.29 342.798 309.823 343.231 310.196 343.805C310.583 344.378 310.776 345.051 310.776 345.825C310.776 346.278 310.71 346.725 310.576 347.165C310.456 347.605 310.23 348.071 309.896 348.565C309.576 349.045 309.103 349.591 308.476 350.205L303.136 355.445L302.736 354.885H311.416V356.165H301.596Z" fill="#120C0C"/>
<path opacity="0.8" d="M363.244 355.376V356.861H353.938V355.562L358.596 350.376C359.169 349.738 359.611 349.198 359.924 348.755C360.243 348.306 360.464 347.906 360.588 347.554C360.718 347.196 360.783 346.832 360.783 346.46C360.783 345.992 360.686 345.569 360.49 345.191C360.301 344.807 360.021 344.501 359.65 344.273C359.279 344.045 358.83 343.931 358.303 343.931C357.671 343.931 357.144 344.055 356.721 344.302C356.304 344.543 355.992 344.882 355.783 345.318C355.575 345.754 355.471 346.255 355.471 346.822H353.664C353.664 346.021 353.84 345.289 354.191 344.625C354.543 343.96 355.064 343.433 355.754 343.042C356.444 342.645 357.294 342.447 358.303 342.447C359.201 342.447 359.969 342.606 360.607 342.925C361.245 343.238 361.734 343.681 362.072 344.253C362.417 344.82 362.59 345.484 362.59 346.246C362.59 346.662 362.518 347.085 362.375 347.515C362.238 347.938 362.046 348.361 361.799 348.785C361.558 349.208 361.275 349.625 360.949 350.035C360.63 350.445 360.288 350.848 359.924 351.246L356.115 355.376H363.244ZM367.814 348.863H369.104C369.735 348.863 370.256 348.759 370.666 348.55C371.083 348.335 371.392 348.046 371.594 347.681C371.802 347.31 371.906 346.893 371.906 346.431C371.906 345.884 371.815 345.425 371.633 345.054C371.451 344.683 371.177 344.403 370.812 344.214C370.448 344.026 369.986 343.931 369.426 343.931C368.918 343.931 368.469 344.032 368.078 344.234C367.694 344.429 367.391 344.709 367.17 345.074C366.955 345.438 366.848 345.868 366.848 346.363H365.041C365.041 345.64 365.223 344.983 365.588 344.39C365.952 343.798 366.464 343.326 367.121 342.974C367.785 342.623 368.553 342.447 369.426 342.447C370.285 342.447 371.037 342.6 371.682 342.906C372.326 343.205 372.827 343.654 373.186 344.253C373.544 344.846 373.723 345.585 373.723 346.47C373.723 346.828 373.638 347.212 373.469 347.623C373.306 348.026 373.049 348.404 372.697 348.755C372.352 349.107 371.903 349.397 371.35 349.625C370.796 349.846 370.132 349.957 369.357 349.957H367.814V348.863ZM367.814 350.347V349.263H369.357C370.262 349.263 371.011 349.371 371.604 349.585C372.196 349.8 372.661 350.087 373 350.445C373.345 350.803 373.586 351.197 373.723 351.626C373.866 352.05 373.938 352.473 373.938 352.896C373.938 353.56 373.824 354.149 373.596 354.664C373.374 355.178 373.059 355.614 372.648 355.972C372.245 356.33 371.77 356.6 371.223 356.783C370.676 356.965 370.08 357.056 369.436 357.056C368.817 357.056 368.234 356.968 367.688 356.792C367.147 356.617 366.669 356.363 366.252 356.031C365.835 355.692 365.51 355.279 365.275 354.791C365.041 354.296 364.924 353.733 364.924 353.101H366.73C366.73 353.596 366.838 354.029 367.053 354.4C367.274 354.771 367.587 355.061 367.99 355.269C368.4 355.471 368.882 355.572 369.436 355.572C369.989 355.572 370.464 355.477 370.861 355.289C371.265 355.093 371.574 354.8 371.789 354.41C372.01 354.019 372.121 353.528 372.121 352.935C372.121 352.343 371.997 351.858 371.75 351.48C371.503 351.096 371.151 350.813 370.695 350.63C370.246 350.442 369.715 350.347 369.104 350.347H367.814Z" fill="#120C0C"/>
<path opacity="0.8" d="M416.369 356.165V355.145L422.189 349.445C422.722 348.925 423.122 348.471 423.389 348.085C423.656 347.685 423.836 347.311 423.929 346.965C424.022 346.618 424.069 346.291 424.069 345.985C424.069 345.171 423.789 344.531 423.229 344.065C422.682 343.598 421.869 343.365 420.789 343.365C419.962 343.365 419.229 343.491 418.589 343.745C417.962 343.998 417.422 344.391 416.969 344.925L415.949 344.045C416.496 343.405 417.196 342.911 418.049 342.565C418.902 342.218 419.856 342.045 420.909 342.045C421.856 342.045 422.676 342.198 423.369 342.505C424.062 342.798 424.596 343.231 424.969 343.805C425.356 344.378 425.549 345.051 425.549 345.825C425.549 346.278 425.482 346.725 425.349 347.165C425.229 347.605 425.002 348.071 424.669 348.565C424.349 349.045 423.876 349.591 423.249 350.205L417.909 355.445L417.509 354.885H426.189V356.165H416.369ZM427.307 352.485V351.445L434.727 342.165H436.327L428.967 351.445L428.187 351.205H439.447V352.485H427.307ZM435.207 356.165V352.485L435.247 351.205V347.965H436.647V356.165H435.207Z" fill="#120C0C"/>
<path opacity="0.8" d="M35.9509 412.671V411.651L41.7709 405.951C42.3042 405.431 42.7042 404.978 42.9709 404.591C43.2376 404.191 43.4176 403.818 43.5109 403.471C43.6042 403.124 43.6509 402.798 43.6509 402.491C43.6509 401.678 43.3709 401.038 42.8109 400.571C42.2642 400.104 41.4509 399.871 40.3709 399.871C39.5442 399.871 38.8109 399.998 38.1709 400.251C37.5442 400.504 37.0042 400.898 36.5509 401.431L35.5309 400.551C36.0776 399.911 36.7776 399.418 37.6309 399.071C38.4842 398.724 39.4376 398.551 40.4909 398.551C41.4376 398.551 42.2576 398.704 42.9509 399.011C43.6442 399.304 44.1776 399.738 44.5509 400.311C44.9376 400.884 45.1309 401.558 45.1309 402.331C45.1309 402.784 45.0642 403.231 44.9309 403.671C44.8109 404.111 44.5842 404.578 44.2509 405.071C43.9309 405.551 43.4576 406.098 42.8309 406.711L37.4909 411.951L37.0909 411.391H45.7709V412.671H35.9509ZM51.9981 412.791C50.9981 412.791 50.0448 412.631 49.1381 412.311C48.2314 411.978 47.5114 411.538 46.9781 410.991L47.6781 409.851C48.1181 410.318 48.7181 410.704 49.4781 411.011C50.2514 411.318 51.0848 411.471 51.9781 411.471C53.1648 411.471 54.0648 411.211 54.6781 410.691C55.3048 410.158 55.6181 409.464 55.6181 408.611C55.6181 408.011 55.4714 407.498 55.1781 407.071C54.8981 406.631 54.4181 406.291 53.7381 406.051C53.0581 405.811 52.1248 405.691 50.9381 405.691H47.9581L48.6781 398.671H56.3381V399.951H49.2581L49.9981 399.251L49.3781 405.131L48.6381 404.411H51.2581C52.6714 404.411 53.8048 404.584 54.6581 404.931C55.5114 405.278 56.1248 405.764 56.4981 406.391C56.8848 407.004 57.0781 407.724 57.0781 408.551C57.0781 409.338 56.8914 410.058 56.5181 410.711C56.1448 411.351 55.5848 411.858 54.8381 412.231C54.0914 412.604 53.1448 412.791 51.9981 412.791Z" fill="#120C0C"/>
<path opacity="0.8" d="M99.0202 412.671V411.651L104.84 405.951C105.374 405.431 105.774 404.978 106.04 404.591C106.307 404.191 106.487 403.818 106.58 403.471C106.674 403.124 106.72 402.798 106.72 402.491C106.72 401.678 106.44 401.038 105.88 400.571C105.334 400.104 104.52 399.871 103.44 399.871C102.614 399.871 101.88 399.998 101.24 400.251C100.614 400.504 100.074 400.898 99.6202 401.431L98.6002 400.551C99.1469 399.911 99.8469 399.418 100.7 399.071C101.554 398.724 102.507 398.551 103.56 398.551C104.507 398.551 105.327 398.704 106.02 399.011C106.714 399.304 107.247 399.738 107.62 400.311C108.007 400.884 108.2 401.558 108.2 402.331C108.2 402.784 108.134 403.231 108 403.671C107.88 404.111 107.654 404.578 107.32 405.071C107 405.551 106.527 406.098 105.9 406.711L100.56 411.951L100.16 411.391H108.84V412.671H99.0202ZM116.348 412.791C115.108 412.791 114.062 412.518 113.208 411.971C112.355 411.411 111.708 410.611 111.268 409.571C110.828 408.518 110.608 407.258 110.608 405.791C110.608 404.204 110.875 402.878 111.408 401.811C111.955 400.731 112.708 399.918 113.668 399.371C114.628 398.824 115.742 398.551 117.008 398.551C117.635 398.551 118.235 398.611 118.808 398.731C119.382 398.851 119.888 399.044 120.328 399.311L119.748 400.471C119.388 400.231 118.975 400.064 118.508 399.971C118.042 399.864 117.548 399.811 117.028 399.811C115.522 399.811 114.315 400.291 113.408 401.251C112.515 402.211 112.068 403.644 112.068 405.551C112.068 405.844 112.082 406.211 112.108 406.651C112.148 407.078 112.228 407.504 112.348 407.931L111.848 407.551C111.995 406.858 112.282 406.271 112.708 405.791C113.135 405.298 113.668 404.924 114.308 404.671C114.948 404.418 115.648 404.291 116.408 404.291C117.342 404.291 118.162 404.464 118.868 404.811C119.575 405.158 120.128 405.644 120.528 406.271C120.928 406.898 121.128 407.638 121.128 408.491C121.128 409.358 120.922 410.118 120.508 410.771C120.095 411.411 119.522 411.911 118.788 412.271C118.068 412.618 117.255 412.791 116.348 412.791ZM116.288 411.571C116.955 411.571 117.542 411.451 118.048 411.211C118.568 410.958 118.975 410.604 119.268 410.151C119.562 409.684 119.708 409.144 119.708 408.531C119.708 407.611 119.388 406.878 118.748 406.331C118.122 405.784 117.268 405.511 116.188 405.511C115.468 405.511 114.842 405.644 114.308 405.911C113.775 406.178 113.355 406.544 113.048 407.011C112.742 407.464 112.588 407.984 112.588 408.571C112.588 409.078 112.728 409.564 113.008 410.031C113.288 410.484 113.702 410.858 114.248 411.151C114.808 411.431 115.488 411.571 116.288 411.571Z" fill="#120C0C"/>
<path opacity="0.8" d="M162.591 412.671V411.651L168.411 405.951C168.944 405.431 169.344 404.978 169.611 404.591C169.877 404.191 170.057 403.818 170.151 403.471C170.244 403.124 170.291 402.798 170.291 402.491C170.291 401.678 170.011 401.038 169.451 400.571C168.904 400.104 168.091 399.871 167.011 399.871C166.184 399.871 165.451 399.998 164.811 400.251C164.184 400.504 163.644 400.898 163.191 401.431L162.171 400.551C162.717 399.911 163.417 399.418 164.271 399.071C165.124 398.724 166.077 398.551 167.131 398.551C168.077 398.551 168.897 398.704 169.591 399.011C170.284 399.304 170.817 399.738 171.191 400.311C171.577 400.884 171.771 401.558 171.771 402.331C171.771 402.784 171.704 403.231 171.571 403.671C171.451 404.111 171.224 404.578 170.891 405.071C170.571 405.551 170.097 406.098 169.471 406.711L164.131 411.951L163.731 411.391H172.411V412.671H162.591ZM176.639 412.671L182.679 399.311L183.119 399.951H174.459L175.199 399.251V402.571H173.779V398.671H184.059V399.691L178.199 412.671H176.639Z" fill="#120C0C"/>
<path opacity="0.8" d="M225.66 412.671V411.651L231.48 405.951C232.013 405.431 232.413 404.978 232.68 404.591C232.947 404.191 233.127 403.818 233.22 403.471C233.313 403.124 233.36 402.798 233.36 402.491C233.36 401.678 233.08 401.038 232.52 400.571C231.973 400.104 231.16 399.871 230.08 399.871C229.253 399.871 228.52 399.998 227.88 400.251C227.253 400.504 226.713 400.898 226.26 401.431L225.24 400.551C225.787 399.911 226.487 399.418 227.34 399.071C228.193 398.724 229.147 398.551 230.2 398.551C231.147 398.551 231.967 398.704 232.66 399.011C233.353 399.304 233.887 399.738 234.26 400.311C234.647 400.884 234.84 401.558 234.84 402.331C234.84 402.784 234.773 403.231 234.64 403.671C234.52 404.111 234.293 404.578 233.96 405.071C233.64 405.551 233.167 406.098 232.54 406.711L227.2 411.951L226.8 411.391H235.48V412.671H225.66ZM242.607 412.791C241.487 412.791 240.52 412.631 239.707 412.311C238.907 411.991 238.287 411.531 237.847 410.931C237.42 410.318 237.207 409.598 237.207 408.771C237.207 407.971 237.414 407.291 237.827 406.731C238.254 406.158 238.867 405.718 239.667 405.411C240.48 405.104 241.46 404.951 242.607 404.951C243.74 404.951 244.714 405.104 245.527 405.411C246.34 405.718 246.96 406.158 247.387 406.731C247.827 407.291 248.047 407.971 248.047 408.771C248.047 409.598 247.827 410.318 247.387 410.931C246.947 411.531 246.32 411.991 245.507 412.311C244.694 412.631 243.727 412.791 242.607 412.791ZM242.607 411.571C243.847 411.571 244.814 411.318 245.507 410.811C246.214 410.304 246.567 409.618 246.567 408.751C246.567 407.884 246.214 407.204 245.507 406.711C244.814 406.204 243.847 405.951 242.607 405.951C241.367 405.951 240.4 406.204 239.707 406.711C239.014 407.204 238.667 407.884 238.667 408.751C238.667 409.618 239.014 410.304 239.707 410.811C240.4 411.318 241.367 411.571 242.607 411.571ZM242.607 405.771C241.567 405.771 240.68 405.631 239.947 405.351C239.227 405.071 238.674 404.671 238.287 404.151C237.9 403.618 237.707 402.984 237.707 402.251C237.707 401.478 237.907 400.818 238.307 400.271C238.72 399.711 239.294 399.284 240.027 398.991C240.76 398.698 241.62 398.551 242.607 398.551C243.594 398.551 244.454 398.698 245.187 398.991C245.934 399.284 246.514 399.711 246.927 400.271C247.34 400.818 247.547 401.478 247.547 402.251C247.547 402.984 247.354 403.618 246.967 404.151C246.58 404.671 246.014 405.071 245.267 405.351C244.534 405.631 243.647 405.771 242.607 405.771ZM242.607 404.811C243.7 404.811 244.554 404.584 245.167 404.131C245.78 403.678 246.087 403.071 246.087 402.311C246.087 401.511 245.767 400.891 245.127 400.451C244.5 399.998 243.66 399.771 242.607 399.771C241.554 399.771 240.714 399.998 240.087 400.451C239.46 400.891 239.147 401.504 239.147 402.291C239.147 403.064 239.447 403.678 240.047 404.131C240.66 404.584 241.514 404.811 242.607 404.811Z" fill="#120C0C"/>
<rect x="279.759" y="385.07" width="42.3797" height="41.2025" rx="20.6013" fill="#214635"/>
<path d="M299.674 410.706V412.19H290.367V410.891L295.025 405.706C295.598 405.068 296.041 404.527 296.354 404.085C296.673 403.635 296.894 403.235 297.018 402.883C297.148 402.525 297.213 402.161 297.213 401.79C297.213 401.321 297.115 400.898 296.92 400.52C296.731 400.136 296.451 399.83 296.08 399.602C295.709 399.374 295.26 399.26 294.732 399.26C294.101 399.26 293.574 399.384 293.15 399.631C292.734 399.872 292.421 400.211 292.213 400.647C292.005 401.083 291.9 401.585 291.9 402.151H290.094C290.094 401.35 290.27 400.618 290.621 399.954C290.973 399.29 291.493 398.762 292.184 398.372C292.874 397.975 293.723 397.776 294.732 397.776C295.631 397.776 296.399 397.936 297.037 398.255C297.675 398.567 298.163 399.01 298.502 399.583C298.847 400.149 299.02 400.813 299.02 401.575C299.02 401.991 298.948 402.415 298.805 402.844C298.668 403.268 298.476 403.691 298.229 404.114C297.988 404.537 297.704 404.954 297.379 405.364C297.06 405.774 296.718 406.178 296.354 406.575L292.545 410.706H299.674ZM303.404 410.676H303.59C304.632 410.676 305.478 410.53 306.129 410.237C306.78 409.944 307.281 409.55 307.633 409.055C307.984 408.561 308.225 408.004 308.355 407.385C308.486 406.76 308.551 406.119 308.551 405.462V403.284C308.551 402.639 308.476 402.066 308.326 401.565C308.183 401.064 307.981 400.644 307.721 400.305C307.467 399.967 307.177 399.71 306.852 399.534C306.526 399.358 306.181 399.27 305.816 399.27C305.4 399.27 305.025 399.355 304.693 399.524C304.368 399.687 304.091 399.918 303.863 400.217C303.642 400.517 303.473 400.868 303.355 401.272C303.238 401.676 303.18 402.115 303.18 402.59C303.18 403.014 303.232 403.424 303.336 403.821C303.44 404.218 303.6 404.576 303.814 404.895C304.029 405.214 304.296 405.468 304.615 405.657C304.941 405.839 305.322 405.93 305.758 405.93C306.161 405.93 306.539 405.852 306.891 405.696C307.249 405.533 307.564 405.315 307.838 405.042C308.118 404.762 308.339 404.446 308.502 404.094C308.671 403.743 308.769 403.375 308.795 402.991H309.654C309.654 403.531 309.547 404.065 309.332 404.592C309.124 405.113 308.831 405.589 308.453 406.018C308.076 406.448 307.633 406.793 307.125 407.053C306.617 407.307 306.064 407.434 305.465 407.434C304.762 407.434 304.153 407.297 303.639 407.024C303.124 406.751 302.701 406.386 302.369 405.93C302.044 405.475 301.799 404.967 301.637 404.407C301.48 403.84 301.402 403.268 301.402 402.688C301.402 402.011 301.497 401.376 301.686 400.784C301.874 400.191 302.154 399.671 302.525 399.221C302.896 398.766 303.355 398.411 303.902 398.157C304.456 397.903 305.094 397.776 305.816 397.776C306.63 397.776 307.324 397.939 307.896 398.264C308.469 398.59 308.935 399.026 309.293 399.573C309.658 400.12 309.924 400.735 310.094 401.419C310.263 402.102 310.348 402.805 310.348 403.528V404.182C310.348 404.918 310.299 405.667 310.201 406.428C310.11 407.184 309.931 407.906 309.664 408.596C309.404 409.286 309.023 409.905 308.521 410.452C308.02 410.992 307.366 411.422 306.559 411.741C305.758 412.053 304.768 412.21 303.59 412.21H303.404V410.676Z" fill="#FEFEFE"/>
<path opacity="0.8" d="M357.239 412.791C356.225 412.791 355.265 412.631 354.359 412.311C353.465 411.978 352.745 411.538 352.199 410.991L352.899 409.851C353.352 410.318 353.959 410.704 354.719 411.011C355.492 411.318 356.332 411.471 357.239 411.471C358.399 411.471 359.285 411.218 359.899 410.711C360.525 410.204 360.839 409.524 360.839 408.671C360.839 407.818 360.532 407.138 359.919 406.631C359.319 406.124 358.365 405.871 357.059 405.871H356.059V404.811L360.379 399.391L360.579 399.951H352.779V398.671H361.779V399.691L357.459 405.111L356.759 404.651H357.299C358.979 404.651 360.232 405.024 361.059 405.771C361.899 406.518 362.319 407.478 362.319 408.651C362.319 409.438 362.132 410.144 361.759 410.771C361.385 411.398 360.819 411.891 360.059 412.251C359.312 412.611 358.372 412.791 357.239 412.791ZM369.928 412.791C368.848 412.791 367.888 412.511 367.048 411.951C366.208 411.378 365.548 410.564 365.068 409.511C364.588 408.444 364.348 407.164 364.348 405.671C364.348 404.178 364.588 402.904 365.068 401.851C365.548 400.784 366.208 399.971 367.048 399.411C367.888 398.838 368.848 398.551 369.928 398.551C371.008 398.551 371.968 398.838 372.808 399.411C373.648 399.971 374.308 400.784 374.788 401.851C375.281 402.904 375.528 404.178 375.528 405.671C375.528 407.164 375.281 408.444 374.788 409.511C374.308 410.564 373.648 411.378 372.808 411.951C371.968 412.511 371.008 412.791 369.928 412.791ZM369.928 411.471C370.754 411.471 371.474 411.251 372.088 410.811C372.701 410.358 373.181 409.704 373.528 408.851C373.874 407.984 374.048 406.924 374.048 405.671C374.048 404.418 373.874 403.364 373.528 402.511C373.181 401.644 372.701 400.991 372.088 400.551C371.474 400.098 370.754 399.871 369.928 399.871C369.128 399.871 368.414 400.098 367.788 400.551C367.161 400.991 366.674 401.644 366.328 402.511C365.981 403.364 365.808 404.418 365.808 405.671C365.808 406.924 365.981 407.984 366.328 408.851C366.674 409.704 367.161 410.358 367.788 410.811C368.414 411.251 369.128 411.471 369.928 411.471Z" fill="#120C0C"/>
<path opacity="0.8" d="M423.809 412.791C422.796 412.791 421.836 412.631 420.929 412.311C420.036 411.978 419.316 411.538 418.769 410.991L419.469 409.851C419.922 410.318 420.529 410.704 421.289 411.011C422.062 411.318 422.902 411.471 423.809 411.471C424.969 411.471 425.856 411.218 426.469 410.711C427.096 410.204 427.409 409.524 427.409 408.671C427.409 407.818 427.102 407.138 426.489 406.631C425.889 406.124 424.936 405.871 423.629 405.871H422.629V404.811L426.949 399.391L427.149 399.951H419.349V398.671H428.349V399.691L424.029 405.111L423.329 404.651H423.869C425.549 404.651 426.802 405.024 427.629 405.771C428.469 406.518 428.889 407.478 428.889 408.651C428.889 409.438 428.702 410.144 428.329 410.771C427.956 411.398 427.389 411.891 426.629 412.251C425.882 412.611 424.942 412.791 423.809 412.791ZM433.358 412.671V399.271L433.998 399.951H430.058V398.671H434.798V412.671H433.358Z" fill="#120C0C"/>
<circle opacity="0.05" cx="476.38" cy="445.418" r="166" fill="url(#paint0_linear_12_3982)"/>
<circle opacity="0.05" cx="-65" cy="247" r="166" fill="url(#paint1_linear_12_3982)"/>
</g>
<defs>
<linearGradient id="paint0_linear_12_3982" x1="695.664" y1="547.887" x2="348.293" y2="351.146" gradientUnits="userSpaceOnUse">
<stop stop-color="#62AAA7"/>
<stop offset="1" stop-color="#62AAA7"/>
</linearGradient>
<linearGradient id="paint1_linear_12_3982" x1="154.284" y1="349.469" x2="-193.086" y2="152.728" gradientUnits="userSpaceOnUse">
<stop stop-color="#62AAA7"/>
<stop offset="1" stop-color="#62AAA7"/>
</linearGradient>
<clipPath id="clip0_12_3982">
<rect width="473.241" height="452" rx="16" fill="white"/>
</clipPath>
</defs>
</svg>
