<svg width="16" height="17" viewBox="0 0 16 17" fill="none" xmlns="http://www.w3.org/2000/svg">
<path d="M10.3629 1.79318C9.74417 1.89318 9.04729 2.18693 8.55979 2.55568C7.79417 3.1338 7.26292 3.99005 7.07229 4.94005C6.99729 5.3213 7.00042 6.08693 7.07542 6.44943C7.38167 7.88068 8.38479 9.00568 9.74729 9.43068C10.2035 9.57443 10.5223 9.61505 11.0785 9.5963C11.6285 9.58068 11.9504 9.51505 12.4254 9.32443C13.6442 8.84005 14.5629 7.70255 14.8004 6.38068C14.8598 6.0588 14.866 5.39005 14.816 5.0588C14.7692 4.76193 14.6317 4.31505 14.5942 4.33068C14.5785 4.33693 14.2067 4.77443 13.7629 5.3088C12.066 7.3588 11.7942 7.6588 11.5067 7.79943C11.3254 7.89005 11.2692 7.90255 11.0473 7.90255C10.6067 7.90255 10.5723 7.87755 9.46292 6.7713C8.32542 5.6338 8.29729 5.5963 8.29729 5.15255C8.29729 4.89005 8.30354 4.85568 8.40354 4.67443C8.67229 4.18068 9.21604 3.97443 9.73479 4.16818C9.90042 4.2338 9.98792 4.30568 10.4598 4.7713C10.7535 5.06193 11.0098 5.29318 11.0254 5.29005C11.066 5.27443 13.3129 2.60255 13.3129 2.5713C13.3129 2.53068 12.8879 2.26193 12.6192 2.13693C12.3254 2.00255 12.0535 1.9088 11.7348 1.83693C11.4723 1.78068 10.6254 1.75255 10.3629 1.79318Z" fill="#010101"/>
<path d="M14.6471 1.81166C14.5565 1.85228 14.1784 2.28041 12.7846 3.93353L11.0409 6.00541L10.3721 5.33353C10.0034 4.96478 9.66276 4.63978 9.60964 4.61478C9.55651 4.58666 9.44089 4.56478 9.34089 4.56478C9.13464 4.56478 9.00339 4.62728 8.86589 4.80228C8.73776 4.95853 8.71276 5.22103 8.80651 5.40541C8.90026 5.58041 10.6721 7.33978 10.819 7.40228C11.0346 7.48978 11.294 7.44291 11.4659 7.28353C11.6315 7.13041 12.2909 6.36166 13.3878 5.04291C14.4034 3.82103 14.7253 3.43978 15.2784 2.81791C15.4284 2.64916 15.5003 2.49603 15.5003 2.34603C15.5003 2.19603 15.3628 1.94603 15.2315 1.85853C15.0878 1.75853 14.819 1.73978 14.6471 1.81166Z" fill="#010101"/>
<path d="M5.47802 9.46508C5.38739 9.49008 5.22802 9.54945 5.11864 9.59945C4.93114 9.68695 2.60614 11.0213 2.55302 11.0745C2.53114 11.0932 3.78427 13.362 3.95302 13.612C3.98427 13.662 4.01864 13.6495 4.30927 13.4807C4.48427 13.3776 4.65927 13.2932 4.69364 13.2932C4.72802 13.2932 5.61864 13.5245 6.67177 13.8057C7.72489 14.0901 8.67177 14.337 8.77802 14.3588C9.07489 14.4151 9.37802 14.3838 9.68739 14.2588C9.86864 14.1838 10.8061 13.6245 12.6249 12.5057C14.0936 11.5995 15.328 10.8276 15.3655 10.787C15.4655 10.6807 15.4999 10.5651 15.4999 10.337C15.4999 9.69008 14.8968 9.52133 14.0249 9.92758C13.8999 9.98695 13.1155 10.4307 12.2811 10.9182C11.4468 11.4057 10.6686 11.8495 10.5468 11.9026C9.88427 12.2057 9.47177 12.1713 7.53427 11.6401C6.91552 11.4713 6.81239 11.4151 6.81239 11.2557C6.81239 11.1588 6.93427 11.012 7.01239 11.012C7.04052 11.012 7.41239 11.1088 7.84052 11.2276C8.93427 11.5338 9.08427 11.562 9.29052 11.5151C9.66552 11.4338 9.83739 11.0182 9.64052 10.6807C9.53427 10.5026 9.40614 10.4276 9.05927 10.3557C8.61239 10.2588 8.08114 10.0995 7.32489 9.83695C6.94989 9.7057 6.52802 9.56508 6.39052 9.52133C6.07802 9.42445 5.69989 9.40258 5.47802 9.46508Z" fill="#010101"/>
<path d="M0.996875 10.6775C0.515625 10.9525 0.5 10.965 0.5 11.0775C0.5 11.14 0.89375 11.865 1.70625 13.2993C2.36875 14.4743 2.92813 15.4525 2.94375 15.4743C3.00938 15.5525 3.15313 15.5056 3.59375 15.2525L4.04688 14.9962V14.8712C4.04688 14.765 3.875 14.44 2.8625 12.6525C2.2125 11.4993 1.65625 10.5337 1.63125 10.5025C1.54375 10.4025 1.40938 10.44 0.996875 10.6775ZM1.57812 11.1775C1.69375 11.3431 1.55 11.6056 1.34375 11.6056C1.04375 11.6056 1 11.1275 1.29688 11.0681C1.3875 11.0493 1.525 11.1025 1.57812 11.1775Z" fill="#010101"/>
</svg>
