<svg width="16" height="17" viewBox="0 0 16 17" fill="none" xmlns="http://www.w3.org/2000/svg">
<path d="M7.34315 1.50215C5.92753 1.6459 4.5994 2.18027 3.52753 3.0334C2.35878 3.96465 1.44628 5.3584 1.08065 6.76465C0.955653 7.25527 0.918153 7.1959 1.40565 7.2959C1.6369 7.3459 1.8494 7.3834 1.87753 7.38652C1.91503 7.38652 1.94628 7.3084 2.00878 7.08027C2.46503 5.32715 3.6744 3.8584 5.29628 3.07402C6.1744 2.64902 7.04003 2.44902 7.9994 2.44902C9.34315 2.44902 10.6057 2.86777 11.6963 3.67715C12.0088 3.9084 12.5619 4.44277 12.8213 4.76152C13.415 5.4959 13.8775 6.46777 14.0588 7.3709C14.0932 7.53965 14.1182 7.68652 14.1119 7.69277C14.1057 7.69902 14.0275 7.66465 13.9369 7.61465C13.8463 7.56777 13.7682 7.53965 13.7619 7.5584C13.7525 7.57402 13.6432 7.7584 13.515 7.96465C13.3025 8.3084 13.2869 8.34277 13.3369 8.38027C13.365 8.40215 13.6869 8.60215 14.0525 8.82715L14.715 9.2334L15.3494 8.72715C15.6994 8.44902 15.9838 8.20527 15.9838 8.18027C15.9838 8.12402 15.465 7.44902 15.4213 7.44902C15.4057 7.44902 15.3275 7.49902 15.2494 7.56152L15.1119 7.6709L15.0213 7.22402C14.5838 5.0334 13.1494 3.17402 11.14 2.19902C10.1275 1.70527 9.09628 1.47402 7.95253 1.48652C7.67753 1.48652 7.40253 1.4959 7.34315 1.50215Z" fill="#010101"/>
<path d="M6.86857 4.96797L6.85919 5.23672L6.64044 5.32109C6.36544 5.42734 6.01857 5.63047 5.79357 5.81172C5.69982 5.88984 5.61232 5.94922 5.59982 5.94297C5.58732 5.93672 5.48107 5.88047 5.36544 5.81172C5.24357 5.74297 5.14044 5.70234 5.12482 5.71797C5.08107 5.76484 4.05607 7.54922 4.04044 7.60234C4.03419 7.63672 4.09982 7.69297 4.26232 7.78359L4.49357 7.91484L4.46232 8.04922C4.41857 8.21797 4.41857 9.00859 4.46232 9.20859L4.49357 9.35859L4.26232 9.48984C4.10607 9.57734 4.03419 9.63672 4.04044 9.66797C4.05294 9.72109 5.08419 11.5117 5.12482 11.5555C5.14044 11.5711 5.24357 11.5305 5.36544 11.4617C5.48107 11.393 5.58732 11.3367 5.59982 11.3305C5.61232 11.3242 5.69982 11.3836 5.79357 11.4617C6.01544 11.643 6.34044 11.8305 6.63107 11.9461L6.85919 12.0398L6.86857 12.3055L6.87794 12.5742H7.99982H9.12169L9.13107 12.3055L9.14044 12.0398L9.36857 11.9461C9.65607 11.8305 9.98419 11.643 10.2029 11.4617C10.2967 11.3867 10.3811 11.3242 10.3873 11.3242C10.3936 11.3242 10.4998 11.3836 10.6248 11.4523C10.7498 11.5273 10.8592 11.5711 10.8748 11.5555C10.9154 11.5117 11.9467 9.72109 11.9592 9.66797C11.9654 9.63672 11.8936 9.57734 11.7373 9.48984L11.5061 9.35859L11.5373 9.20859C11.5779 9.01484 11.5779 8.25859 11.5373 8.06484L11.5061 7.91484L11.7373 7.78359C11.8654 7.71172 11.9686 7.63984 11.9686 7.62422C11.9686 7.59609 10.9686 5.84922 10.8936 5.74297C10.8561 5.69297 10.8373 5.69609 10.6373 5.81172C10.5186 5.87734 10.4123 5.93672 10.3998 5.94297C10.3873 5.94922 10.2998 5.88984 10.2061 5.81172C9.97482 5.62422 9.64357 5.43047 9.36857 5.32422L9.14044 5.23672L9.13107 4.96797L9.12169 4.69922H7.99982H6.87794L6.86857 4.96797ZM8.34357 7.29609C8.71232 7.38047 9.08107 7.68984 9.25919 8.06484C9.35294 8.26484 9.35919 8.29609 9.35919 8.63672C9.35919 8.97734 9.35294 9.00859 9.25919 9.20859C9.12482 9.49297 8.85607 9.76172 8.57169 9.89609C8.37169 9.98984 8.34044 9.99609 7.99982 9.99609C7.65919 9.99609 7.62794 9.98984 7.42794 9.89609C7.14357 9.76172 6.87482 9.49297 6.74044 9.20859C6.64669 9.00859 6.64044 8.97734 6.64044 8.63672C6.64044 8.29609 6.64669 8.26484 6.74044 8.06484C7.03419 7.44922 7.66544 7.14297 8.34357 7.29609Z" fill="#010101"/>
<path d="M0.640455 8.55228C0.296705 8.82728 0.0154555 9.07728 0.0185805 9.10228C0.0185805 9.16478 0.53108 9.82416 0.57483 9.82416C0.59358 9.82416 0.671705 9.77416 0.74983 9.71166L0.88733 9.60228L0.97483 10.0398C1.58421 13.1242 4.14983 15.4492 7.29671 15.7648C7.80608 15.8148 8.69046 15.7867 9.17171 15.7023C10.8811 15.4023 12.328 14.5898 13.4186 13.321C14.1405 12.4804 14.6717 11.471 14.9342 10.4335C14.9967 10.1929 15.0123 10.0835 14.9873 10.071C14.9498 10.0492 14.1748 9.88666 14.1061 9.88666C14.0842 9.88666 14.0467 9.98353 14.0155 10.1117C13.5873 11.8835 12.303 13.4492 10.6405 14.2335C8.49046 15.2429 5.95921 14.9429 4.12483 13.4585C3.80608 13.1992 3.27171 12.646 3.04046 12.3335C2.44983 11.5367 2.05608 10.6179 1.89046 9.65853L1.87171 9.54291L2.01858 9.63666C2.10296 9.68666 2.18421 9.73041 2.19983 9.73041C2.23421 9.72728 2.69983 8.97728 2.69671 8.93041C2.69671 8.90541 1.31546 8.04291 1.28108 8.04603C1.27171 8.04603 0.984205 8.27416 0.640455 8.55228Z" fill="#010101"/>
</svg>
