<svg width="16" height="17" viewBox="0 0 16 17" fill="none" xmlns="http://www.w3.org/2000/svg">
<g clip-path="url(#clip0_35_2734)">
<path d="M6.92252 1.20225C6.49439 1.27725 6.07252 1.38975 5.68814 1.5335C5.44752 1.62412 5.11002 1.771 5.06939 1.8085C5.06627 1.81162 5.19752 2.04912 5.36002 2.33037L5.66002 2.84912L5.91627 2.73975C6.27252 2.58975 6.83814 2.43037 7.22564 2.37412C7.40689 2.346 7.57252 2.32412 7.59127 2.32412C7.61627 2.32412 7.62564 2.14912 7.62564 1.73037V1.13662L7.44752 1.13975C7.34752 1.13975 7.11314 1.16787 6.92252 1.20225Z" fill="#010101"/>
<path d="M8.46875 1.72424V2.32112L8.61875 2.33987C9.55 2.46174 10.3313 2.73987 11.0312 3.19924C12.3719 4.08049 13.25 5.44299 13.4813 7.02112C13.5312 7.34612 13.55 8.19612 13.5125 8.38362C13.4938 8.48049 13.4906 8.48049 13.2844 8.48049C13.0563 8.48049 13.0188 8.49612 12.9875 8.59299C12.9656 8.66799 12.9563 8.65549 13.6375 9.52112C14.0469 10.043 14.1594 10.1461 14.2438 10.093C14.275 10.0742 15.2281 8.87112 15.3219 8.73049C15.3875 8.63674 15.3875 8.59299 15.325 8.53049C15.2875 8.49299 15.2094 8.48049 15 8.48049H14.7219L14.7406 8.04924C14.825 6.02424 13.9281 3.99299 12.375 2.69299C11.5031 1.96174 10.475 1.46487 9.38125 1.24299C9.16563 1.19924 8.87188 1.15549 8.72813 1.14612L8.46875 1.12737V1.72424Z" fill="#010101"/>
<path d="M3.99417 2.471C3.81604 2.60538 3.50979 2.87413 3.31292 3.07413C2.95354 3.43038 2.45354 4.05538 2.48479 4.10538C2.50042 4.13038 3.38792 4.65226 3.47542 4.68351C3.50667 4.69601 3.57229 4.63351 3.68479 4.48038C3.98167 4.08038 4.48792 3.58663 4.87854 3.31476L4.94729 3.26476L4.65354 2.74913C4.49104 2.46476 4.35042 2.23351 4.33792 2.23038C4.32542 2.23038 4.17229 2.33976 3.99417 2.471Z" fill="#010101"/>
<path d="M8.0096 3.62096C7.2221 3.79283 6.67835 4.59596 6.8096 5.39596C6.9596 6.29908 7.8346 6.88971 8.71272 6.68346C9.5721 6.48033 10.1065 5.61471 9.89085 4.77721C9.74085 4.19596 9.29397 3.75846 8.71272 3.62096C8.47522 3.56471 8.26585 3.56471 8.0096 3.62096Z" fill="#010101"/>
<path d="M1.9125 5.11196C1.7375 5.51508 1.64687 5.78696 1.55 6.16821C1.4625 6.53071 1.375 7.06508 1.375 7.26196V7.38696H1.96562C2.64062 7.38696 2.575 7.41821 2.60938 7.07446C2.64062 6.77133 2.82187 6.09946 2.96563 5.74633C3.0375 5.57758 3.08438 5.42758 3.06875 5.41508C3.04375 5.39008 2.0625 4.82446 2.05 4.82446C2.04375 4.82446 1.98125 4.95571 1.9125 5.11196Z" fill="#010101"/>
<path d="M7.89051 7.03978C7.57489 7.0929 7.32176 7.17415 7.01551 7.32415C6.27176 7.68353 5.72489 8.28978 5.45301 9.05228C5.31239 9.44603 5.30926 9.60228 5.44051 9.71165L5.53739 9.7929H8.34676C11.453 9.7929 11.3061 9.80228 11.3718 9.59603C11.3999 9.5179 11.3968 9.45228 11.3593 9.30853C11.078 8.2304 10.1905 7.36165 9.09051 7.08978C8.85926 7.0304 8.12489 7.00228 7.89051 7.03978Z" fill="#010101"/>
<path d="M1.38809 8.50238C1.41621 8.88363 1.54121 9.47425 1.68496 9.90863C1.81309 10.2993 2.02871 10.8024 2.05996 10.7868C2.07246 10.7805 2.30996 10.6461 2.58809 10.4868L3.09434 10.1961L3.04434 10.0805C2.80059 9.518 2.65684 8.98363 2.57871 8.37738L2.55996 8.2305H1.96309H1.36621L1.38809 8.50238Z" fill="#010101"/>
<path d="M4.85354 10.8712C4.76291 10.8962 4.59416 10.965 4.47854 11.0244C4.31604 11.1056 2.75979 11.9962 2.72854 12.0244C2.72229 12.0306 3.92854 14.1681 3.95041 14.1931C3.95979 14.1994 4.01291 14.1837 4.07229 14.1587C4.17541 14.1087 4.20041 14.115 5.92541 14.5775C7.91604 15.1119 8.02541 15.1306 8.39104 15.0056C8.55041 14.9525 9.25667 14.5337 10.9379 13.4994C12.2192 12.7119 13.3098 12.0212 13.366 11.965C13.5348 11.7869 13.5442 11.4494 13.3848 11.2587C13.2285 11.0744 12.9942 11.0306 12.641 11.1212C12.3473 11.1962 12.1035 11.3244 10.6567 12.1681C9.90979 12.6056 9.20041 12.9962 9.07854 13.04C8.88479 13.1119 8.81291 13.1212 8.46916 13.1181C8.01291 13.115 7.77229 13.0681 6.78166 12.79C6.36916 12.6744 6.08791 12.5806 6.05041 12.5431C5.91604 12.4119 6.01916 12.1681 6.20666 12.1681C6.24729 12.1681 6.50354 12.2306 6.77229 12.3056C7.52229 12.5181 7.89104 12.6056 8.02229 12.6056C8.38166 12.6056 8.61291 12.2337 8.44104 11.9275C8.40041 11.8619 8.34104 11.7869 8.30041 11.7587C8.26291 11.7275 7.99729 11.6462 7.70979 11.5775C7.42229 11.5056 6.90354 11.3494 6.55354 11.2275C6.20666 11.1056 5.81604 10.9712 5.68791 10.9306C5.38479 10.8337 5.06604 10.8087 4.85354 10.8712Z" fill="#010101"/>
<path d="M1.56266 11.5336C1.38453 11.6023 0.737656 12.0023 0.693906 12.068C0.565781 12.2617 0.572031 12.2742 1.65328 14.1836C2.20641 15.1648 2.70328 16.0023 2.75328 16.0492C2.82516 16.118 2.87516 16.1367 2.98453 16.1367C3.10328 16.1367 3.19391 16.0992 3.51578 15.918C3.72828 15.7961 3.93141 15.6617 3.96891 15.6148C4.11578 15.4273 4.11891 15.4305 3.01266 13.4805C2.45328 12.493 1.96578 11.6523 1.92516 11.6117C1.85328 11.5367 1.65641 11.4961 1.56266 11.5336ZM1.71891 12.3242C1.80016 12.4055 1.79703 12.5367 1.71266 12.6273C1.62516 12.7211 1.51578 12.718 1.42203 12.6211C1.32516 12.5273 1.32203 12.4273 1.41266 12.3336C1.49703 12.243 1.63453 12.2398 1.71891 12.3242Z" fill="#010101"/>
</g>
<defs>
<clipPath id="clip0_35_2734">
<rect width="16" height="16" fill="white" transform="translate(0 0.636719)"/>
</clipPath>
</defs>
</svg>
