<svg width="16" height="17" viewBox="0 0 16 17" fill="none" xmlns="http://www.w3.org/2000/svg">
<path d="M5.35967 2.08695C4.69092 2.2182 4.1753 2.51195 3.66905 3.05257C3.09718 3.66507 2.81905 4.40882 2.85343 5.21507C2.89405 6.07132 3.17843 6.7182 3.78155 7.32757C4.28467 7.83382 4.78155 8.10257 5.42842 8.21507C6.2753 8.36195 7.23155 8.11507 7.89717 7.57445C8.14405 7.37445 8.14717 7.36507 8.05342 7.16507C7.89092 6.8182 7.86905 6.60882 7.97217 6.39632C8.05342 6.22757 8.24717 6.07757 8.69405 5.8432L9.02842 5.66507L9.0503 5.4557C9.08155 5.16507 9.04405 4.6307 8.9753 4.37132C8.68467 3.2807 7.81905 2.44007 6.69717 2.14945C6.31905 2.04945 5.69717 2.02132 5.35967 2.08695Z" fill="#010101"/>
<path d="M12 3.90848C11.9563 3.93661 11.7875 4.08973 11.6219 4.24911C11.1469 4.70536 11.0469 4.73661 10.3844 4.63348C9.75626 4.53348 9.71876 4.55848 9.64064 5.12411C9.58126 5.54598 9.55626 5.63348 9.45314 5.80848C9.35939 5.97411 9.21876 6.07411 8.79064 6.28973C8.61564 6.37723 8.44376 6.48036 8.40626 6.51786C8.30939 6.62098 8.34064 6.76161 8.57189 7.24598C8.75314 7.62411 8.76564 7.66786 8.76564 7.87098C8.76251 8.07411 8.75001 8.12098 8.57189 8.49598C8.46564 8.71786 8.36876 8.95848 8.35626 9.03036C8.34064 9.14598 8.34689 9.16473 8.43751 9.23973C8.49064 9.28661 8.70314 9.40848 8.90939 9.51473C9.45626 9.79286 9.54689 9.92098 9.62501 10.5429C9.66564 10.8491 9.70626 11.0054 9.77501 11.0804C9.83751 11.1522 10.0719 11.1554 10.4531 11.0866C10.9875 10.9929 11.1719 11.0554 11.625 11.496C12.1375 11.996 12.2031 11.996 12.6969 11.5085C13.0938 11.121 13.2094 11.0585 13.5469 11.0616C13.6844 11.0616 13.9281 11.0866 14.0844 11.1116C14.2438 11.1366 14.4094 11.1522 14.4531 11.1429C14.5969 11.1179 14.6313 11.0241 14.75 10.3116C14.8188 9.89598 14.9375 9.76161 15.4906 9.48036C15.7031 9.37411 15.9031 9.25223 15.9375 9.20848C16.0281 9.09286 16 8.98036 15.7719 8.51161C15.5875 8.13661 15.5813 8.11161 15.5813 7.87098C15.5781 7.63036 15.5844 7.60848 15.7563 7.26161C15.8531 7.06473 15.9469 6.84286 15.9656 6.77098C16.025 6.54911 15.9813 6.50223 15.4438 6.22723C14.875 5.93973 14.8063 5.83973 14.7063 5.14911C14.6438 4.73348 14.5875 4.61473 14.4406 4.58973C14.3781 4.58036 14.1344 4.60223 13.8969 4.63661C13.2719 4.73036 13.1938 4.70223 12.6969 4.22411C12.3 3.84286 12.175 3.78661 12 3.90848ZM12.7438 5.48036C13.575 5.68036 14.2156 6.27723 14.5094 7.12098C14.6031 7.38973 14.6094 7.42411 14.6094 7.88661C14.6063 8.33661 14.6 8.38973 14.5219 8.62098C14.4719 8.75848 14.375 8.96786 14.3063 9.08973C14.1531 9.35223 13.7156 9.79598 13.4594 9.94598C12.7531 10.3616 11.9188 10.4335 11.2156 10.1397C10.5844 9.87411 10.0406 9.28348 9.82189 8.62098C9.74689 8.39911 9.73751 8.32098 9.73751 7.93348C9.73439 7.56786 9.74689 7.45536 9.80626 7.25223C10.05 6.40848 10.6594 5.75848 11.4375 5.51473C11.7063 5.43036 11.7406 5.42723 12.1406 5.42098C12.3875 5.42098 12.5563 5.43661 12.7438 5.48036Z" fill="#010101"/>
<path d="M11.7656 5.89902C11.125 6.02402 10.6218 6.40215 10.3531 6.96465C10.2031 7.2834 10.1468 7.5834 10.1656 7.98027C10.2187 9.09277 11.0312 9.85527 12.1625 9.8584C12.7781 9.8584 13.2062 9.68652 13.6093 9.28027C14.0218 8.86465 14.1718 8.48027 14.1687 7.83965C14.1656 7.3709 14.0781 7.0709 13.8406 6.71465C13.4156 6.08027 12.5625 5.7459 11.7656 5.89902Z" fill="#010101"/>
<path d="M5.31292 9.53672C5.14417 9.55859 5.14104 9.56172 5.15042 9.65234C5.15979 9.74609 5.39104 11.0305 5.42229 11.1586C5.43792 11.2305 5.44729 11.2305 5.95354 11.2305C6.45979 11.2305 6.46917 11.2305 6.48479 11.1586C6.56604 10.818 6.77229 9.58359 6.75042 9.56172C6.71917 9.53047 5.55354 9.50859 5.31292 9.53672Z" fill="#010101"/>
<path d="M4.32812 9.73031C3.89062 9.85531 3.21875 10.1334 3.21875 10.1866C3.21875 10.2553 4.70312 14.3834 4.71875 14.3647C4.73125 14.3522 4.80625 13.6866 4.88437 12.8866L5.02813 11.4334L4.8625 10.5459C4.77188 10.0553 4.6875 9.65218 4.66875 9.64906C4.65313 9.64281 4.5 9.68031 4.32812 9.73031Z" fill="#010101"/>
<path d="M7.20293 9.67406C7.19668 9.69593 7.12168 10.1053 7.03418 10.5866L6.87793 11.4584L7.02168 12.8991C7.0998 13.6897 7.1748 14.3522 7.1873 14.3647C7.20293 14.3834 8.6873 10.2553 8.6873 10.1866C8.6873 10.1272 8.02793 9.85843 7.56855 9.73031C7.18418 9.62093 7.21855 9.62718 7.20293 9.67406Z" fill="#010101"/>
<path d="M2.47187 10.6305C2.11562 10.8836 1.63125 11.3367 1.36875 11.6648C0.6375 12.5711 0.1375 13.7523 0.046875 14.793C0.0375 14.9055 0.021875 15.0492 0.015625 15.1148L0 15.2305H2.26875C4.41562 15.2305 4.5375 15.2273 4.51562 15.1742C4.50625 15.1461 4.12187 14.0617 3.6625 12.768C3.20625 11.4773 2.81875 10.418 2.8 10.418C2.78125 10.418 2.63437 10.5148 2.47187 10.6305Z" fill="#010101"/>
<path d="M8.22773 12.8146L7.38086 15.2146L9.63086 15.224C10.8715 15.2271 11.8902 15.2271 11.8934 15.2209C11.8996 15.2178 11.8871 15.0646 11.8715 14.8865C11.7527 13.6678 11.3184 12.6303 10.509 11.624C10.4402 11.5365 10.4402 11.5365 10.2215 11.5709C9.62148 11.6646 9.30586 11.399 9.20898 10.7146C9.18086 10.5178 9.15586 10.4303 9.12148 10.424C9.09023 10.4178 8.85898 11.0334 8.22773 12.8146Z" fill="#010101"/>
<path d="M5.28398 13.2992C5.19336 14.1992 5.11211 14.9992 5.10273 15.0805L5.08398 15.2305H5.94961C6.78086 15.2305 6.81211 15.2273 6.81211 15.1711C6.81211 15.1367 6.73398 14.3523 6.64023 13.4273C6.54648 12.5023 6.46836 11.7273 6.46836 11.7055C6.46836 11.6773 6.34648 11.668 5.95898 11.668H5.44961L5.28398 13.2992Z" fill="#010101"/>
</svg>
