<svg width="16" height="16" viewBox="0 0 16 16" fill="none" xmlns="http://www.w3.org/2000/svg">
<mask id="mask0_49_159" style="mask-type:alpha" maskUnits="userSpaceOnUse" x="1" y="1" width="13" height="14">
<path d="M2.94657 4.46346C3.65003 4.46346 4.22029 3.89319 4.22029 3.18974C4.22029 2.48628 3.65003 1.91602 2.94657 1.91602C2.24312 1.91602 1.67285 2.48628 1.67285 3.18974C1.67285 3.89319 2.24312 4.46346 2.94657 4.46346Z" fill="white"/>
<path d="M1.67285 6.37402H4.22029V14.3348H1.67285V6.37402ZM6.76773 9.39911V14.3348H8.99674V9.87675C8.99674 9.08068 9.47439 8.44382 10.2705 8.44382C11.0665 8.44382 11.5442 9.23989 11.5442 9.87675V14.3348H13.7732V9.39911C13.7732 8.44382 12.6587 6.37402 10.2705 6.37402C7.88224 6.37402 6.76773 8.44382 6.76773 9.39911Z" fill="white"/>
</mask>
<g mask="url(#mask0_49_159)">
<path d="M0.0712891 0.642578H15.3559V15.9272H0.0712891V0.642578Z" fill="white"/>
</g>
</svg>
