<svg width="17" height="16" viewBox="0 0 17 16" fill="none" xmlns="http://www.w3.org/2000/svg">
<path d="M8.42891 6.2952C7.33331 6.2952 6.43921 7.18929 6.43921 8.28489C6.43921 9.38049 7.33331 10.2746 8.42891 10.2746C9.5245 10.2746 10.4186 9.38049 10.4186 8.28489C10.4186 7.18929 9.5245 6.2952 8.42891 6.2952ZM14.3965 8.28489C14.3965 7.46095 14.4039 6.64448 14.3577 5.82203C14.3114 4.86674 14.0935 4.01892 13.3949 3.32037C12.6949 2.62032 11.8485 2.40388 10.8933 2.35761C10.0693 2.31134 9.25284 2.3188 8.4304 2.3188C7.60646 2.3188 6.78999 2.31134 5.96754 2.35761C5.01225 2.40388 4.16443 2.62181 3.46587 3.32037C2.76582 4.02041 2.54939 4.86674 2.50312 5.82203C2.45685 6.64597 2.46431 7.46244 2.46431 8.28489C2.46431 9.10734 2.45685 9.9253 2.50312 10.7477C2.54939 11.703 2.76732 12.5509 3.46587 13.2494C4.16592 13.9495 5.01225 14.1659 5.96754 14.2122C6.79148 14.2584 7.60795 14.251 8.4304 14.251C9.25433 14.251 10.0708 14.2584 10.8933 14.2122C11.8485 14.1659 12.6964 13.948 13.3949 13.2494C14.095 12.5494 14.3114 11.703 14.3577 10.7477C14.4054 9.9253 14.3965 9.10883 14.3965 8.28489ZM8.42891 11.3463C6.73476 11.3463 5.3675 9.97904 5.3675 8.28489C5.3675 6.59074 6.73476 5.22348 8.42891 5.22348C10.1231 5.22348 11.4903 6.59074 11.4903 8.28489C11.4903 9.97904 10.1231 11.3463 8.42891 11.3463ZM11.6157 5.81308C11.2201 5.81308 10.9007 5.49365 10.9007 5.0981C10.9007 4.70255 11.2201 4.38313 11.6157 4.38313C12.0112 4.38313 12.3307 4.70255 12.3307 5.0981C12.3308 5.19203 12.3124 5.28505 12.2765 5.37185C12.2406 5.45865 12.1879 5.53751 12.1215 5.60393C12.0551 5.67034 11.9762 5.723 11.8894 5.75889C11.8026 5.79478 11.7096 5.81319 11.6157 5.81308Z" fill="white"/>
</svg>
