<svg width="142" height="36" viewBox="0 0 142 36" fill="none" xmlns="http://www.w3.org/2000/svg">
<path d="M0.984 35V1.4H8.76V28.664H25.608V35H0.984ZM45.7103 35.576C43.0543 35.576 40.5903 35.144 38.3183 34.28C36.0783 33.416 34.1263 32.2 32.4622 30.632C30.8303 29.064 29.5503 27.224 28.6223 25.112C27.7263 23 27.2783 20.696 27.2783 18.2C27.2783 15.704 27.7263 13.4 28.6223 11.288C29.5503 9.176 30.8463 7.336 32.5103 5.768C34.1743 4.2 36.1263 2.984 38.3663 2.12C40.6063 1.256 43.0383 0.823999 45.6623 0.823999C48.3183 0.823999 50.7502 1.256 52.9583 2.12C55.1983 2.984 57.1343 4.2 58.7663 5.768C60.4303 7.336 61.7263 9.176 62.6543 11.288C63.5823 13.368 64.0463 15.672 64.0463 18.2C64.0463 20.696 63.5823 23.016 62.6543 25.16C61.7263 27.272 60.4303 29.112 58.7663 30.68C57.1343 32.216 55.1983 33.416 52.9583 34.28C50.7502 35.144 48.3342 35.576 45.7103 35.576ZM45.6623 28.952C47.1663 28.952 48.5423 28.696 49.7903 28.184C51.0703 27.672 52.1903 26.936 53.1503 25.976C54.1103 25.016 54.8463 23.88 55.3583 22.568C55.9023 21.256 56.1743 19.8 56.1743 18.2C56.1743 16.6 55.9023 15.144 55.3583 13.832C54.8463 12.52 54.1103 11.384 53.1503 10.424C52.2223 9.464 51.1183 8.728 49.8383 8.216C48.5583 7.704 47.1663 7.448 45.6623 7.448C44.1583 7.448 42.7663 7.704 41.4863 8.216C40.2383 8.728 39.1343 9.464 38.1743 10.424C37.2143 11.384 36.4623 12.52 35.9183 13.832C35.4063 15.144 35.1503 16.6 35.1503 18.2C35.1503 19.768 35.4063 21.224 35.9183 22.568C36.4623 23.88 37.1983 25.016 38.1263 25.976C39.0863 26.936 40.2063 27.672 41.4863 28.184C42.7663 28.696 44.1583 28.952 45.6623 28.952ZM86.1143 35.576C83.4583 35.576 81.0103 35.16 78.7703 34.328C76.5623 33.464 74.6263 32.248 72.9622 30.68C71.3303 29.112 70.0503 27.272 69.1223 25.16C68.2263 23.048 67.7783 20.728 67.7783 18.2C67.7783 15.672 68.2263 13.352 69.1223 11.24C70.0503 9.128 71.3463 7.288 73.0103 5.72C74.6743 4.152 76.6263 2.952 78.8663 2.12C81.1063 1.256 83.5703 0.823999 86.2583 0.823999C89.2343 0.823999 91.9063 1.32 94.2743 2.312C96.6743 3.304 98.6903 4.744 100.322 6.632L95.3303 11.24C94.1143 9.96 92.7863 9.016 91.3463 8.408C89.9063 7.768 88.3383 7.448 86.6423 7.448C85.0103 7.448 83.5223 7.704 82.1783 8.216C80.8343 8.728 79.6663 9.464 78.6743 10.424C77.7143 11.384 76.9623 12.52 76.4183 13.832C75.9063 15.144 75.6503 16.6 75.6503 18.2C75.6503 19.768 75.9063 21.208 76.4183 22.52C76.9623 23.832 77.7143 24.984 78.6743 25.976C79.6663 26.936 80.8183 27.672 82.1303 28.184C83.4743 28.696 84.9463 28.952 86.5463 28.952C88.0823 28.952 89.5703 28.712 91.0103 28.232C92.4823 27.72 93.9063 26.872 95.2823 25.688L99.6983 31.304C97.8743 32.68 95.7463 33.736 93.3143 34.472C90.9143 35.208 88.5143 35.576 86.1143 35.576ZM92.5943 30.296V17.672H99.6983V31.304L92.5943 30.296ZM123.242 35.576C120.586 35.576 118.122 35.144 115.85 34.28C113.61 33.416 111.658 32.2 109.993 30.632C108.362 29.064 107.082 27.224 106.154 25.112C105.258 23 104.81 20.696 104.81 18.2C104.81 15.704 105.258 13.4 106.154 11.288C107.082 9.176 108.378 7.336 110.042 5.768C111.706 4.2 113.658 2.984 115.898 2.12C118.138 1.256 120.57 0.823999 123.194 0.823999C125.85 0.823999 128.281 1.256 130.49 2.12C132.73 2.984 134.666 4.2 136.298 5.768C137.962 7.336 139.258 9.176 140.186 11.288C141.114 13.368 141.578 15.672 141.578 18.2C141.578 20.696 141.114 23.016 140.186 25.16C139.258 27.272 137.962 29.112 136.298 30.68C134.666 32.216 132.73 33.416 130.49 34.28C128.281 35.144 125.865 35.576 123.242 35.576ZM123.194 28.952C124.698 28.952 126.074 28.696 127.322 28.184C128.602 27.672 129.722 26.936 130.682 25.976C131.642 25.016 132.378 23.88 132.89 22.568C133.434 21.256 133.706 19.8 133.706 18.2C133.706 16.6 133.434 15.144 132.89 13.832C132.378 12.52 131.642 11.384 130.682 10.424C129.754 9.464 128.65 8.728 127.37 8.216C126.09 7.704 124.698 7.448 123.194 7.448C121.69 7.448 120.298 7.704 119.018 8.216C117.77 8.728 116.666 9.464 115.706 10.424C114.746 11.384 113.994 12.52 113.45 13.832C112.938 15.144 112.682 16.6 112.682 18.2C112.682 19.768 112.938 21.224 113.45 22.568C113.994 23.88 114.73 25.016 115.658 25.976C116.618 26.936 117.738 27.672 119.018 28.184C120.298 28.696 121.69 28.952 123.194 28.952Z" fill="white"/>
</svg>
