<svg width="17" height="16" viewBox="0 0 17 16" fill="none" xmlns="http://www.w3.org/2000/svg">
<path d="M4.74457 3.50781C4.23785 3.50781 3.75188 3.70911 3.39358 4.06741C3.03528 4.42571 2.83398 4.91168 2.83398 5.41839V5.61041L8.56573 8.69695L14.2975 5.61136V5.41839C14.2975 4.91168 14.0962 4.42571 13.7379 4.06741C13.3796 3.70911 12.8936 3.50781 12.3869 3.50781H4.74457ZM14.2975 6.69562L8.79213 9.65988C8.72255 9.69734 8.64475 9.71695 8.56573 9.71695C8.4867 9.71695 8.40891 9.69734 8.33932 9.65988L2.83398 6.69562V11.1501C2.83398 11.6569 3.03528 12.1428 3.39358 12.5011C3.75188 12.8594 4.23785 13.0607 4.74457 13.0607H12.3869C12.8936 13.0607 13.3796 12.8594 13.7379 12.5011C14.0962 12.1428 14.2975 11.6569 14.2975 11.1501V6.69562Z" fill="white"/>
</svg>
