<svg width="23" height="17" viewBox="0 0 23 17" fill="none" xmlns="http://www.w3.org/2000/svg">
<path d="M10.0945 0.536957L10.094 0.536997C7.2172 0.803724 4.40265 1.88922 2.13852 3.59566L2.13699 3.59681L2.13699 3.59682C1.87153 3.8001 1.53922 4.07552 1.25874 4.3199C1.11838 4.4422 0.989489 4.55804 0.887446 4.65426C0.791928 4.74433 0.70299 4.83274 0.657888 4.89408L0.65454 4.89864L0.654592 4.89867C0.222986 5.51435 0.611894 6.35474 1.33922 6.48808C1.53485 6.52395 1.71071 6.50234 1.91544 6.39612C2.10064 6.30005 2.31321 6.13249 2.59738 5.88791L2.59773 5.88761C3.48113 5.12447 4.20172 4.62013 5.1108 4.13805L5.11115 4.13786C7.24794 3.00039 9.50172 2.47153 11.9142 2.54519L11.9145 2.5452C13.3287 2.58666 14.4761 2.79319 15.8026 3.23992C17.6126 3.85247 19.051 4.68855 20.5268 5.98912L20.5275 5.9897C20.646 6.09341 20.7742 6.19454 20.8863 6.27488C20.9423 6.31501 20.9962 6.35131 21.0442 6.38066C21.0878 6.40737 21.1408 6.4372 21.1908 6.45471L21.1962 6.45661L21.1962 6.45655C21.6628 6.60788 22.1941 6.37822 22.4075 5.93446M10.0945 0.536957L22.1827 5.82499M10.0945 0.536957C10.7285 0.479316 12.2009 0.479414 12.8332 0.532106L12.8332 0.532097L12.8353 0.532292C16.2534 0.846487 19.3933 2.20384 21.9044 4.45769M10.0945 0.536957L21.7374 4.64374M22.4075 5.93446C22.4077 5.93396 22.408 5.93346 22.4082 5.93297L22.1827 5.82499M22.4075 5.93446C22.4073 5.93489 22.4071 5.93533 22.4069 5.93576L22.1827 5.82499M22.4075 5.93446C22.5295 5.6871 22.5704 5.43821 22.4699 5.17238C22.3777 4.92829 22.1767 4.70134 21.9044 4.45769M22.1827 5.82499C22.3843 5.41718 22.2718 5.12187 21.7374 4.64374M21.9044 4.45769L21.7374 4.64374M21.9044 4.45769C21.9043 4.4576 21.9042 4.45752 21.9041 4.45743L21.7374 4.64374" fill="#214635" stroke="#214635" stroke-width="0.5"/>
<path d="M10.1903 5.05637L10.1903 5.05637C7.88762 5.33462 5.70531 6.35607 4.03043 7.93014L10.1903 5.05637ZM10.1903 5.05637C10.909 4.96955 12.0257 4.96967 12.7665 5.05626L12.7666 5.05626C15.102 5.32962 17.2755 6.33685 18.9697 7.93027C19.1631 8.11189 19.307 8.26386 19.3993 8.42003C19.4993 8.58943 19.5313 8.75041 19.5313 8.93269C19.5313 9.09001 19.4613 9.26279 19.3875 9.39328C19.3141 9.52301 19.2022 9.67232 19.0666 9.75241C18.8296 9.89296 18.5871 9.96187 18.3176 9.89852C18.0659 9.83935 17.8285 9.67235 17.5751 9.44064L17.575 9.44054C15.8474 7.8592 13.7554 7.03113 11.5 7.03113C9.24932 7.03113 7.14798 7.86385 5.42503 9.44056L5.42494 9.44064C5.1715 9.67235 4.93409 9.83935 4.68241 9.89852C4.41309 9.96184 4.17068 9.89303 3.9338 9.75264M10.1903 5.05637L3.9338 9.75264M3.9338 9.75264C3.79801 9.6726 3.68593 9.52313 3.61248 9.39328C3.53866 9.26279 3.46875 9.09001 3.46875 8.93269C3.46875 8.75041 3.50072 8.58943 3.60074 8.42003C3.69297 8.26384 3.83692 8.11185 4.03035 7.93021L3.9338 9.75264Z" fill="#214635" stroke="#214635" stroke-width="0.5"/>
<path d="M10.3548 9.57712L10.3551 9.57706C11.0308 9.45954 11.9312 9.4598 12.6284 9.57681L12.6297 9.57703C13.8652 9.79105 14.8903 10.2748 15.8655 11.0996C16.1553 11.3438 16.368 11.5744 16.4657 11.8257C16.572 12.0991 16.5286 12.357 16.4012 12.6117L16.4013 12.6117L16.3989 12.6162C16.3155 12.7751 16.2152 12.9102 16.0717 13.0068C15.9278 13.1035 15.765 13.1451 15.5862 13.1614L15.5862 13.1614L15.5827 13.1617C15.4107 13.1749 15.2573 13.1697 15.0836 13.0873C14.93 13.0143 14.7735 12.8858 14.5691 12.7067L14.5681 12.7058C13.9845 12.189 13.3221 11.842 12.5632 11.6501L12.563 11.65C12.2965 11.5824 11.8981 11.5464 11.4876 11.5482C11.077 11.5499 10.6814 11.5891 10.42 11.6587L10.42 11.6587L10.419 11.659C9.63009 11.8652 9.0141 12.1894 8.43086 12.7058L8.43086 12.7058L8.4299 12.7067C8.22549 12.8858 8.06901 13.0143 7.91535 13.0873C7.74173 13.1697 7.58827 13.1749 7.41626 13.1617L7.41626 13.1617L7.4128 13.1614C7.23422 13.1452 7.07094 13.1036 6.92734 13.0064C6.7839 12.9093 6.68476 12.7734 6.60357 12.6139C6.47203 12.3589 6.42371 12.1013 6.52884 11.8278C6.62506 11.5775 6.83796 11.3498 7.12427 11.1088C8.09385 10.2896 9.13258 9.79136 10.3548 9.57712Z" fill="#214635" stroke="#214635" stroke-width="0.5"/>
<path d="M10.8531 15.8422L10.7225 16.0553C10.2042 15.7376 9.94975 15.2244 9.99925 14.6128C10.0495 13.9775 10.4361 13.4898 11.0451 13.2896C11.1175 13.2648 11.2189 13.2566 11.296 13.2528C11.3871 13.2483 11.4925 13.2483 11.5919 13.2534C12.0672 13.2756 12.4266 13.4605 12.7158 13.8387L12.7159 13.8389C12.9553 14.1524 13.038 14.4786 13.0007 14.9017C12.9548 15.5001 12.5047 16.0601 11.9255 16.2149L11.861 15.9734M10.8531 15.8422L10.7217 16.0548C10.889 16.1582 11.0991 16.2205 11.3038 16.2471C11.5094 16.2738 11.7307 16.2672 11.9258 16.2148L11.861 15.9734M10.8531 15.8422C11.111 16.0015 11.5469 16.0578 11.861 15.9734M10.8531 15.8422C10.4172 15.575 10.2063 15.1531 10.2485 14.6328C10.2906 14.0984 10.6094 13.6953 11.125 13.5265L12.7516 14.8812C12.7141 15.3781 12.3344 15.8468 11.861 15.9734" fill="#214635" stroke="#214635" stroke-width="0.5"/>
</svg>
