<svg width="25" height="24" viewBox="0 0 25 24" fill="none" xmlns="http://www.w3.org/2000/svg">
<path d="M12.4769 0.196875C12.1535 2.325 11.7082 3.77344 10.8551 5.48438C10.0629 7.06875 9.13476 8.31562 8.04726 9.24844C5.5957 11.3625 4.81757 12.6 4.57851 14.7609C4.50351 15.4359 4.54101 17.0297 4.64413 17.6016C4.9957 19.5234 5.77382 21.0609 7.04413 22.3312C7.44257 22.7297 8.18788 23.3578 8.22538 23.3203C8.23476 23.3109 8.21601 23.2266 8.18788 23.1234C7.85038 21.9469 7.96757 20.6391 8.5207 19.5328C8.89101 18.7828 9.33632 18.2531 10.2973 17.4094C11.8723 16.0266 12.6691 14.85 12.8051 13.7109L12.8379 13.4297L12.9926 13.8516C13.4848 15.225 14.141 16.3219 15.0223 17.2594C15.5473 17.8219 15.7769 18.1641 15.9691 18.6891C16.466 20.0672 16.1285 21.9516 15.0457 23.7984C14.9801 23.9109 14.9519 24 14.9754 24C15.0457 24 15.7207 23.4937 16.3207 22.9922C16.9301 22.4812 17.9754 21.4219 18.4207 20.8594C19.4004 19.6266 20.0285 18.3844 20.3379 17.0672C20.4551 16.5469 20.5066 14.7984 20.4269 14.0062C20.141 11.2922 19.0723 8.36719 17.291 5.41406C16.091 3.42656 14.5348 1.50469 13.3207 0.515625C13.0254 0.276562 12.6035 0 12.5379 0C12.5191 0 12.4957 0.0890617 12.4769 0.196875Z" fill="#214635"/>
</svg>
