<svg width="14" height="24" viewBox="0 0 14 24" fill="none" xmlns="http://www.w3.org/2000/svg">
<path d="M6.31074 0.103125C6.1373 0.295311 0.193553 12.2391 0.188866 12.4078C0.184178 12.5203 0.221678 12.6 0.310741 12.6937L0.437303 12.8203L2.55137 12.8344C4.18262 12.8438 4.66074 12.8625 4.64199 12.9047C4.62793 12.9375 3.62012 15.3234 2.40605 18.2109C0.976366 21.6047 0.193553 23.5172 0.193553 23.6156C0.193553 23.85 0.357616 24 0.606053 24C0.793553 24 0.821678 23.9812 1.06543 23.7047C1.20605 23.5453 4.12637 20.0812 7.55762 16.0078C13.4451 9.01875 13.7967 8.59219 13.7967 8.42344C13.7967 8.21719 13.7404 8.09062 13.6232 8.03437C13.5764 8.01094 12.4561 7.98281 11.1342 7.96875L8.72949 7.94531L11.0732 4.24219C13.5998 0.253124 13.5482 0.356249 13.3045 0.117188L13.192 0H9.79824H6.40449L6.31074 0.103125Z" fill="#214635"/>
</svg>
