<svg width="21" height="24" viewBox="0 0 21 24" fill="none" xmlns="http://www.w3.org/2000/svg">
<path d="M10.2797 0.525C10.2234 0.557812 9.87656 0.787498 9.50625 1.03594C7.93594 2.09062 6.03281 2.98125 3.82031 3.70312C2.9625 3.97969 1.64531 4.34062 1.04531 4.45312C0.829688 4.49531 0.721875 4.54688 0.623438 4.65L0.492188 4.79062L0.501563 5.82656C0.534375 9.89531 1.22813 13.5656 2.49375 16.3828C4.05469 19.8609 6.58594 22.2234 9.99375 23.3812L10.5 23.5547L11.0391 23.3719C14.3625 22.2516 16.9078 19.8844 18.4641 16.4672C19.7625 13.6219 20.4656 9.95156 20.4984 5.82187L20.5078 4.77656L20.3625 4.64531C20.2547 4.54688 20.1047 4.49062 19.7531 4.41094C16.5891 3.70312 13.35 2.35312 11.2125 0.857811C10.6875 0.487499 10.4719 0.412498 10.2797 0.525ZM11.5031 3.46875C13.3406 4.49531 15.1594 5.25 17.475 5.95312C17.8734 6.075 17.9906 6.13125 18.1359 6.27656C18.4031 6.54375 18.4406 6.70781 18.4031 7.44844C18.3375 8.79844 18.15 10.2656 17.8828 11.6016C17.0625 15.6844 15.375 18.5344 12.75 20.2641C12.2016 20.625 11.0625 21.2016 10.725 21.2906C10.4203 21.3703 10.2188 21.3094 9.39844 20.9109C5.32969 18.9234 3.15469 14.7656 2.625 7.95C2.55469 7.02187 2.56406 6.76406 2.67656 6.525C2.81719 6.23906 3.05625 6.08437 3.59063 5.93437C5.49375 5.39062 7.7625 4.44375 9.525 3.45469C10.2938 3.02344 10.2375 3.04688 10.5469 3.06094C10.7719 3.075 10.8984 3.12656 11.5031 3.46875Z" fill="#214635"/>
<path d="M10.1949 4.15302C9.73555 4.43427 8.27305 5.1749 7.56992 5.48896C6.42148 5.99521 5.0293 6.50146 3.85273 6.84365L3.50586 6.94209L3.53867 7.3499C3.60898 8.36709 3.71211 9.40303 3.80117 10.0077C4.47617 14.7093 6.17773 17.8733 8.95273 19.5983C9.17305 19.7343 9.61367 19.9687 9.92773 20.1233L10.509 20.3999L11.2637 20.0202C12.6512 19.3265 13.6543 18.478 14.6105 17.1937C15.6559 15.7968 16.4809 13.7624 16.9449 11.4608C17.198 10.1952 17.334 9.14053 17.4605 7.3499L17.4934 6.94678L17.0762 6.8249C14.9434 6.1874 12.8668 5.32021 11.0809 4.30771C10.7668 4.12959 10.4996 3.98428 10.4949 3.98428C10.4855 3.98428 10.3496 4.05927 10.1949 4.15302Z" fill="#214635"/>
</svg>
