<svg width="87" height="87" viewBox="0 0 87 87" fill="none" xmlns="http://www.w3.org/2000/svg">
<g filter="url(#filter0_b_12_4148)">
<circle cx="43.2197" cy="43.1736" r="43" fill="white" fill-opacity="0.1"/>
</g>
<path d="M42.8923 21.3334C36.4593 21.3334 31.2256 26.567 31.2256 33C31.2256 39.433 36.4593 44.6667 42.8923 44.6667C49.3253 44.6667 54.5589 39.433 54.5589 33C54.5589 26.567 49.3253 21.3334 42.8923 21.3334ZM42.8923 42.3334C37.7461 42.3334 33.5589 38.1462 33.5589 33C33.5589 27.8539 37.7461 23.6667 42.8923 23.6667C48.0384 23.6667 52.2256 27.8539 52.2256 33C52.2256 38.1462 48.0384 42.3334 42.8923 42.3334Z" fill="white"/>
<path d="M38.8086 31.8333C39.7751 31.8333 40.5586 31.0498 40.5586 30.0833C40.5586 29.1168 39.7751 28.3333 38.8086 28.3333C37.8421 28.3333 37.0586 29.1168 37.0586 30.0833C37.0586 31.0498 37.8421 31.8333 38.8086 31.8333Z" fill="white"/>
<path d="M46.9664 31.817C47.9284 31.817 48.7083 31.0371 48.7083 30.0751C48.7083 29.1132 47.9284 28.3333 46.9664 28.3333C46.0045 28.3333 45.2246 29.1132 45.2246 30.0751C45.2246 31.0371 46.0045 31.817 46.9664 31.817Z" fill="white"/>
<path d="M42.8916 40.0001C48.7249 40.0001 49.8916 34.1667 49.8916 34.1667H35.8916C35.8916 34.1667 37.0583 40.0001 42.8916 40.0001Z" fill="white"/>
<path d="M26.4219 52.334L27.9935 57.1709H33.0793L28.9648 60.1602L30.5364 64.9971L26.4219 62.0077L22.3074 64.9971L23.879 60.1602L19.7645 57.1709H24.8503L26.4219 52.334Z" fill="white"/>
<path d="M44.6895 52.334L46.2611 57.1709H51.3468L47.2324 60.1602L48.8039 64.9971L44.6895 62.0077L40.575 64.9971L42.1466 60.1602L38.0321 57.1709H43.1179L44.6895 52.334Z" fill="white"/>
<path d="M62.9561 52.334L64.5277 57.1709H69.6135L65.499 60.1602L67.0706 64.9971L62.9561 62.0077L58.8416 64.9971L60.4132 60.1602L56.2987 57.1709H61.3845L62.9561 52.334Z" fill="white"/>
<defs>
<filter id="filter0_b_12_4148" x="-33.9177" y="-33.9638" width="154.275" height="154.275" filterUnits="userSpaceOnUse" color-interpolation-filters="sRGB">
<feFlood flood-opacity="0" result="BackgroundImageFix"/>
<feGaussianBlur in="BackgroundImageFix" stdDeviation="17.0687"/>
<feComposite in2="SourceAlpha" operator="in" result="effect1_backgroundBlur_12_4148"/>
<feBlend mode="normal" in="SourceGraphic" in2="effect1_backgroundBlur_12_4148" result="shape"/>
</filter>
</defs>
</svg>
