<svg width="13" height="12" viewBox="0 0 13 12" fill="none" xmlns="http://www.w3.org/2000/svg">
<path d="M8.96218 7.62176L8.64992 7.93265C8.64992 7.93265 7.90669 8.67108 5.87875 6.6548C3.8508 4.63853 4.59404 3.9001 4.59404 3.9001L4.79031 3.70382C5.27551 3.22206 5.32149 2.44794 4.89806 1.88245L4.03335 0.72745C3.50904 0.0274501 2.49678 -0.0651969 1.89629 0.531862L0.818844 1.60245C0.521687 1.89892 0.322667 2.28186 0.346687 2.70735C0.408451 3.79647 0.901196 6.13873 3.64904 8.87147C6.56365 11.7689 9.29845 11.8842 10.4164 11.7799C10.7705 11.747 11.078 11.5672 11.3257 11.3201L12.3002 10.3511C12.959 9.69706 12.7737 8.575 11.931 8.11725L10.6202 7.40422C10.0671 7.10431 9.39453 7.19216 8.96218 7.62176Z" fill="#214635"/>
</svg>
