<svg width="12" height="16" viewBox="0 0 12 16" fill="none" xmlns="http://www.w3.org/2000/svg">
<path d="M1.39377 0.0781126C1.16877 0.168738 1.02189 0.284363 0.868766 0.487488C0.634391 0.793738 0.640641 0.712488 0.640641 2.96874V4.98436L0.712516 5.16561C0.809391 5.39999 1.06877 5.68124 1.29377 5.79061C1.38752 5.83749 1.47189 5.87499 1.47814 5.87499C1.48439 5.87499 1.50002 5.48436 1.50627 5.00624C1.52189 4.14061 1.52189 4.14061 1.61564 3.86874C1.97814 2.82811 3.09689 2.36561 4.09064 2.84999C4.37502 2.98749 4.70939 3.32186 4.85939 3.62186C5.03752 3.97811 5.06252 4.15311 5.06252 5.07186V5.87811L5.13439 5.85936C5.30314 5.80936 5.55314 5.62499 5.68752 5.44686C5.94689 5.10936 5.94064 5.19374 5.93127 2.89061L5.92189 0.859363L5.82189 0.668738C5.69689 0.431238 5.49064 0.224988 5.25627 0.106238L5.07814 0.0156126L3.32814 0.0093627L1.57814 -1.23978e-05L1.39377 0.0781126Z" fill="#214635"/>
<path d="M7.38429 0.0593905C6.96866 0.200016 6.68116 0.54064 6.59366 0.984391C6.56866 1.11877 6.56241 1.72814 6.56866 3.07814L6.57804 4.98439L6.67804 5.19377C6.86241 5.58439 7.18429 5.83439 7.59366 5.90627C7.73116 5.92814 8.29679 5.93752 9.35929 5.93127C10.9093 5.92189 10.9218 5.92189 11.103 5.85002C11.4499 5.70939 11.7124 5.43439 11.8343 5.08127C11.8874 4.93439 11.8905 4.76564 11.8905 2.93752V0.953141L11.8187 0.781266C11.7187 0.53439 11.5562 0.331265 11.3624 0.200016C11.0562 -0.00310946 11.0749 1.57356e-05 9.22179 1.57356e-05C7.69366 0.00314045 7.53116 0.00626564 7.38429 0.0593905Z" fill="#214635"/>
<path d="M3.12165 3.5625C2.84978 3.60938 2.63415 3.77187 2.50915 4.025L2.42165 4.20312L2.41228 7.96875L2.39978 11.7344L2.1279 10.5781C1.9779 9.94062 1.82478 9.36562 1.7904 9.29688C1.70915 9.14375 1.5904 9.02812 1.40603 8.93437C1.28415 8.86875 1.22478 8.85938 0.95915 8.8625C0.69665 8.86875 0.631025 8.87812 0.481025 8.95312C0.243525 9.06875 0.14665 9.22187 0.131025 9.49687C0.12165 9.67188 0.1654 9.90625 0.43415 11.0625C0.60915 11.8094 0.78415 12.5719 0.824775 12.7531C1.05603 13.75 1.66228 14.8406 2.5154 15.7906L2.7029 16H5.34977H7.99353L8.17165 15.7031C8.76853 14.7 9.16228 13.5 9.2779 12.3312C9.29978 12.1281 9.31227 11.2188 9.31227 10.1094C9.31227 7.96875 9.31853 8.03437 9.06227 7.78125C8.7154 7.43125 8.13103 7.44687 7.8029 7.80937C7.73415 7.88437 7.66228 7.9875 7.63728 8.04375L7.59665 8.14062L7.59353 7.96562C7.59353 7.70937 7.51228 7.50937 7.34353 7.34375C7.0029 7 6.4279 7.00937 6.08728 7.3625C6.02478 7.43125 5.94977 7.53438 5.92478 7.59375L5.8779 7.70312L5.87477 7.54375C5.87477 7.43125 5.84665 7.32812 5.7779 7.19063C5.63415 6.90625 5.4029 6.75313 5.07478 6.725C4.72165 6.69687 4.39353 6.875 4.23415 7.18437L4.15915 7.32812L4.15602 5.79375C4.15602 4.075 4.15602 4.08437 3.93728 3.83437C3.74353 3.61562 3.43103 3.5125 3.12165 3.5625Z" fill="#214635"/>
</svg>
