<svg width="14" height="14" viewBox="0 0 14 14" fill="none" xmlns="http://www.w3.org/2000/svg">
<path d="M7.30713 0.528687L13.3071 6.52869C13.7271 6.94869 13.4298 7.66669 12.8358 7.66669H12.1691V11.6667C12.1691 12.1971 11.9584 12.7058 11.5833 13.0809C11.2083 13.456 10.6996 13.6667 10.1691 13.6667H9.50247V9.00002C9.5025 8.48988 9.30758 7.99901 8.95761 7.62785C8.60764 7.25668 8.12906 7.03328 7.6198 7.00335L7.50247 7.00002H6.16913C5.6387 7.00002 5.12999 7.21073 4.75492 7.58581C4.37985 7.96088 4.16913 8.46959 4.16913 9.00002V13.6667H3.50247C2.97203 13.6667 2.46333 13.456 2.08825 13.0809C1.71318 12.7058 1.50247 12.1971 1.50247 11.6667V7.66669H0.835801C0.242467 7.66669 -0.0555327 6.94869 0.364467 6.52869L6.36447 0.528687C6.48949 0.403706 6.65902 0.333496 6.8358 0.333496C7.01258 0.333496 7.18212 0.403706 7.30713 0.528687ZM7.50247 8.33335C7.67928 8.33335 7.84885 8.40359 7.97387 8.52862C8.0989 8.65364 8.16913 8.82321 8.16913 9.00002V13.6667H5.50247V9.00002C5.50249 8.83673 5.56244 8.67913 5.67094 8.55711C5.77945 8.43508 5.92897 8.35713 6.09113 8.33802L6.16913 8.33335H7.50247Z" fill="#214635"/>
</svg>
