<svg width="20" height="16" viewBox="0 0 20 16" fill="none" xmlns="http://www.w3.org/2000/svg">
<path d="M6.09516 1.22683C6.21646 1.13182 6.35449 1.0627 6.50137 1.0234C6.64825 0.984098 6.8011 0.975397 6.9512 0.997791C7.1013 1.02018 7.24571 1.07323 7.37618 1.15391C7.50665 1.23459 7.62062 1.34131 7.7116 1.46799C7.80257 1.59466 7.86876 1.73881 7.90639 1.89221C7.94402 2.0456 7.95235 2.20523 7.93091 2.36199C7.90947 2.51874 7.85867 2.66955 7.78142 2.8058C7.70417 2.94206 7.60198 3.06108 7.48068 3.15609C5.67489 4.57048 4.64037 5.94629 4.04806 7.14725C4.86133 6.92862 5.71961 6.98002 6.50361 7.2943C7.28761 7.60859 7.95838 8.17014 8.42269 8.90091C8.887 9.63167 9.12178 10.4954 9.0944 11.3719C9.06701 12.2484 8.77883 13.0943 8.26989 13.7919C7.76096 14.4895 7.05656 15.0042 6.25461 15.2644C5.45266 15.5247 4.59299 15.5176 3.7951 15.244C2.99722 14.9705 2.30074 14.4442 1.8025 13.7382C1.30425 13.0322 1.02897 12.1817 1.01494 11.3048C0.86699 9.82402 1.06836 8.32791 1.60147 6.94709C2.29077 5.13117 3.63818 3.15127 6.09516 1.22683ZM16.4865 1.22683C16.6078 1.13182 16.7459 1.0627 16.8927 1.0234C17.0396 0.984098 17.1925 0.975397 17.3426 0.997791C17.4927 1.02018 17.6371 1.07323 17.7675 1.15391C17.898 1.23459 18.012 1.34131 18.103 1.46799C18.1939 1.59466 18.2601 1.73881 18.2978 1.89221C18.3354 2.0456 18.3437 2.20523 18.3223 2.36199C18.3008 2.51874 18.25 2.66955 18.1728 2.8058C18.0955 2.94206 17.9933 3.06108 17.872 3.15609C16.0663 4.57048 15.0317 5.94629 14.4394 7.14725C15.2527 6.92862 16.111 6.98002 16.895 7.2943C17.679 7.60859 18.3498 8.17014 18.8141 8.90091C19.2784 9.63167 19.5132 10.4954 19.4858 11.3719C19.4584 12.2484 19.1702 13.0943 18.6613 13.7919C18.1523 14.4895 17.4479 15.0042 16.646 15.2644C15.844 15.5247 14.9844 15.5176 14.1865 15.244C13.3886 14.9705 12.6921 14.4442 12.1939 13.7382C11.6956 13.0322 11.4203 12.1817 11.4063 11.3048C11.2584 9.82402 11.4597 8.32791 11.9928 6.94709C12.6833 5.13117 14.0295 3.15127 16.4865 1.22683Z" fill="#F1C045"/>
</svg>
