<svg width="42" height="9" viewBox="0 0 42 9" fill="none" xmlns="http://www.w3.org/2000/svg">
<g clip-path="url(#clip0_101_150)">
<g clip-path="url(#clip1_101_150)">
<g clip-path="url(#clip2_101_150)">
<path d="M8.46503 0.674332H0.603516V8.53585H8.46503V0.674332Z" fill="#00B67A"/>
<path d="M16.6779 0.674347H8.81641V8.53586H16.6779V0.674347Z" fill="#00B67A"/>
<path d="M24.8937 0.674332H17.0322V8.53585H24.8937V0.674332Z" fill="#00B67A"/>
<path d="M33.1066 0.674332H25.2451V8.53585H33.1066V0.674332Z" fill="#00B67A"/>
<path d="M41.3225 0.674347H33.4609V8.53586H41.3225V0.674347Z" fill="#00B67A"/>
<path d="M4.39503 5.78467L5.54818 5.49244L6.02997 6.97731L4.39503 5.78467ZM7.04885 3.86539H5.01899L4.39503 1.95401L3.77107 3.86539H1.74121L3.38405 5.05013L2.76009 6.96151L4.40293 5.77677L5.41391 5.05013L7.04885 3.86539Z" fill="white"/>
<path d="M12.6079 5.78475L13.7611 5.49251L14.2429 6.97739L12.6079 5.78475ZM15.2617 3.86547H13.2319L12.6079 1.95409L11.984 3.86547H9.9541L11.5969 5.05021L10.973 6.96159L12.6158 5.77685L13.6268 5.05021L15.2617 3.86547Z" fill="white"/>
<path d="M20.8237 5.78475L21.9769 5.49251L22.4587 6.97739L20.8237 5.78475ZM23.4776 3.86547H21.4477L20.8237 1.95409L20.1998 3.86547H18.1699L19.8128 5.05021L19.1888 6.96159L20.8316 5.77685L21.8426 5.05021L23.4776 3.86547Z" fill="white"/>
<path d="M29.0366 5.78467L30.1898 5.49244L30.6716 6.97731L29.0366 5.78467ZM31.6905 3.86539H29.6606L29.0366 1.95401L28.4127 3.86539H26.3828L28.0257 5.05013L27.4017 6.96151L29.0445 5.77677L30.0555 5.05013L31.6905 3.86539Z" fill="white"/>
<path d="M37.2515 5.78475L38.4046 5.49251L38.8864 6.97739L37.2515 5.78475ZM39.9053 3.86547H37.8754L37.2515 1.95409L36.6275 3.86547H34.5977L36.2405 5.05021L35.6165 6.96159L37.2594 5.77685L38.2704 5.05021L39.9053 3.86547Z" fill="white"/>
</g>
</g>
</g>
<defs>
<clipPath id="clip0_101_150">
<rect width="40.4392" height="7.58234" fill="white" transform="translate(0.604492 0.674789)"/>
</clipPath>
<clipPath id="clip1_101_150">
<rect width="40.4392" height="7.58234" fill="white" transform="translate(0.604492 0.67482)"/>
</clipPath>
<clipPath id="clip2_101_150">
<rect width="40.4392" height="7.58234" fill="white" transform="translate(0.604492 0.67482)"/>
</clipPath>
</defs>
</svg>
