<svg width="42" height="11" viewBox="0 0 42 11" fill="none" xmlns="http://www.w3.org/2000/svg">
<g clip-path="url(#clip0_101_143)">
<g clip-path="url(#clip1_101_143)">
<g clip-path="url(#clip2_101_143)">
<path d="M11.2197 3.92329H15.3198V4.70961H13.7191V9.06244H12.8204V4.70961H11.2197V3.92329ZM15.1513 5.32743H15.9095V6.05758L16.05 5.77676C16.1909 5.57683 16.3856 5.42101 16.6116 5.32743L16.9767 5.24318H17.2856V6.05758C17.174 6.04071 17.0614 6.03133 16.9486 6.0295C16.8082 6.0295 16.6678 6.0295 16.5554 6.11375L16.2465 6.33841L16.0219 6.73157C15.9657 6.90007 15.9657 7.09664 15.9657 7.29322V9.06244H15.1232V5.35551L15.1513 5.32743ZM20.9925 9.06244H20.2062V8.55695C20.1028 8.74685 19.9468 8.90286 19.7569 9.00627C19.5603 9.1186 19.3637 9.17477 19.1671 9.17477C18.6617 9.17477 18.3247 9.03435 18.1 8.80969C17.9034 8.55695 17.7911 8.19187 17.7911 7.68638V5.35551H18.5774V7.60213C18.5774 7.93913 18.6336 8.16379 18.7459 8.3042C18.8582 8.44462 19.0267 8.52886 19.2795 8.52886C19.448 8.52886 19.5603 8.50078 19.7007 8.44462L19.9815 8.21995L20.122 7.91104L20.1781 7.51789V5.35551H20.9644V9.06244H20.9925ZM22.3967 7.88296C22.3967 8.10762 22.4809 8.27612 22.6494 8.38845C22.7898 8.4727 22.9864 8.52886 23.2111 8.52886H23.4638L23.7446 8.44462L23.9412 8.27612C23.9974 8.21995 24.0255 8.13571 24.0255 8.02338C24.0255 7.93913 23.9693 7.8268 23.9131 7.77063L23.6323 7.60213L23.2672 7.51789L22.7898 7.37747C22.6494 7.37747 22.509 7.32131 22.3686 7.26514L21.9754 7.06856C21.8574 6.99078 21.7608 6.88455 21.6946 6.75965C21.6665 6.61924 21.6103 6.47882 21.6103 6.28224C21.6103 6.08567 21.6665 5.91717 21.7788 5.77676C21.8739 5.63858 21.9986 5.52344 22.1439 5.43976C22.2937 5.35987 22.4546 5.30307 22.6213 5.27127L23.1549 5.2151C23.3515 5.2151 23.52 5.2151 23.7165 5.27127C23.8767 5.30993 24.0288 5.37647 24.1659 5.46785C24.3142 5.56804 24.4371 5.70143 24.5248 5.85742C24.6126 6.01342 24.6627 6.18772 24.6714 6.36649H23.8289C23.8008 6.16991 23.7165 6.0295 23.5761 5.97333C23.4357 5.88909 23.2953 5.861 23.0987 5.861C22.955 5.86857 22.8131 5.89695 22.6775 5.94525C22.5932 5.94525 22.5371 6.00142 22.509 6.05758C22.4561 6.10943 22.4258 6.18009 22.4247 6.25416C22.4247 6.33841 22.4528 6.42266 22.5371 6.47882C22.5932 6.56307 22.6775 6.59115 22.8179 6.64732L23.183 6.75965L23.6042 6.8439L24.0535 6.98431C24.192 7.01529 24.3218 7.07673 24.4335 7.16417C24.5453 7.25161 24.6361 7.36285 24.6994 7.4898C24.7556 7.60213 24.7837 7.77063 24.7837 7.93913C24.7837 8.16379 24.7556 8.33228 24.6433 8.50078C24.559 8.6412 24.4186 8.78161 24.2501 8.86586L23.7446 9.09052C23.3387 9.18936 22.9149 9.18936 22.509 9.09052C22.3124 9.00627 22.1439 8.92202 22.0035 8.80969C21.8545 8.69929 21.7335 8.55529 21.6506 8.38939C21.5676 8.22349 21.525 8.04036 21.5261 7.85488H22.3686L22.3967 7.88296ZM25.0364 5.35551H25.6543V4.2322H26.4406V5.35551H27.1426V5.94525H26.4406V8.16379C26.4406 8.21995 26.4406 8.27612 26.4967 8.33229C26.4967 8.36037 26.5529 8.41653 26.6091 8.41653L26.8337 8.4727H27.0022L27.1707 8.41653V9.06244L26.8899 9.09052C26.6468 9.12496 26.3995 9.11545 26.1597 9.06244C26.0193 9.03435 25.9351 8.97819 25.8789 8.89394C25.7666 8.80969 25.7385 8.72544 25.7104 8.61311L25.6543 8.19187V5.97333H25.0364V5.35551ZM27.7605 5.35551H28.5187V5.861C28.6591 5.63634 28.7995 5.46785 28.9961 5.3836C29.2208 5.29935 29.4173 5.24318 29.6701 5.24318C29.9509 5.24318 30.2317 5.29935 30.4283 5.41168C30.6249 5.49593 30.8215 5.63634 30.9619 5.83292C31.1023 6.00142 31.2146 6.22608 31.2708 6.45074C31.3748 6.80648 31.4036 7.18 31.3552 7.54747C31.3069 7.91494 31.1825 8.2683 30.99 8.58503C30.8536 8.76722 30.675 8.91354 30.4695 9.01138C30.2641 9.10922 30.0379 9.15565 29.8105 9.14668C29.5716 9.15223 29.3337 9.11416 29.1084 9.03435C28.8902 8.94033 28.7046 8.78403 28.5749 8.58503V10.4385H27.7324V5.35551H27.7605ZM30.5687 7.20898C30.5687 7.04048 30.5687 6.87198 30.5126 6.73157C30.4564 6.56307 30.4002 6.42266 30.316 6.31033C30.2317 6.16991 30.1194 6.08567 30.0071 6.0295C29.8667 5.94525 29.7263 5.88909 29.5578 5.88909C29.2208 5.88909 28.968 6.00142 28.7995 6.25416C28.631 6.47882 28.5187 6.81582 28.5187 7.20898C28.5187 7.40555 28.5468 7.57405 28.6029 7.74255L28.7995 8.13571C28.8838 8.24804 28.9961 8.36037 29.1365 8.41653C29.2488 8.4727 29.4173 8.52886 29.5578 8.52886C29.7142 8.53317 29.869 8.49658 30.0069 8.4227C30.1448 8.34882 30.261 8.24021 30.3441 8.10762L30.5126 7.68638C30.5687 7.51789 30.5687 7.37747 30.5687 7.20898ZM31.9729 3.92329H32.8154V4.70961H31.9729V3.92329ZM31.9729 5.32743H32.8154V9.06244H31.9729V5.35551V5.32743ZM33.5174 3.92329H34.3599V9.06244H33.5174V3.92329ZM36.8312 9.17477C36.5504 9.17477 36.2695 9.1186 36.0449 9.00627C35.8202 8.92202 35.6236 8.78161 35.4832 8.61311C35.3147 8.44462 35.2024 8.21995 35.1181 7.99529C34.9427 7.48576 34.9427 6.93219 35.1181 6.42266C35.191 6.18986 35.3144 5.97601 35.4794 5.7964C35.6445 5.61678 35.8471 5.47583 36.073 5.3836C36.314 5.28719 36.5717 5.23947 36.8312 5.24318C37.112 5.24318 37.3928 5.29935 37.6175 5.3836C37.8394 5.48202 38.0387 5.62505 38.203 5.80381C38.3673 5.98257 38.493 6.19322 38.5723 6.42266C38.6285 6.64732 38.6847 6.92815 38.6847 7.20898C38.6847 7.4898 38.6285 7.77063 38.5723 7.99529C38.4995 8.22809 38.3761 8.44194 38.2111 8.62155C38.046 8.80117 37.8433 8.94212 37.6175 9.03435C37.3678 9.13448 37.1001 9.18227 36.8312 9.17477ZM36.8312 8.52886C36.9871 8.53047 37.1409 8.49271 37.2784 8.41908C37.4158 8.34544 37.5325 8.23832 37.6175 8.10762C37.7018 7.96721 37.786 7.8268 37.8141 7.68638C37.8926 7.37295 37.8926 7.045 37.8141 6.73157C37.786 6.56307 37.7018 6.45074 37.6175 6.31033C37.5333 6.16991 37.4209 6.08567 37.3086 6.0295C37.103 5.90213 36.8557 5.86021 36.6196 5.91268C36.3835 5.96515 36.1772 6.10786 36.0449 6.31033C35.9606 6.42266 35.9045 6.59116 35.8483 6.73157C35.7698 7.045 35.7698 7.37295 35.8483 7.68638L36.0449 8.10762C36.1291 8.21995 36.2415 8.33229 36.3538 8.38845C36.4942 8.4727 36.6346 8.52886 36.8312 8.52886ZM38.9093 5.35551H39.5271V4.2322H40.3415V5.35551H41.0717V5.94525H40.3415V8.16379L40.3977 8.33229C40.3977 8.36037 40.4539 8.41653 40.51 8.41653L40.7347 8.4727H40.9032L41.0717 8.41653V9.06244L40.7909 9.09052C40.5368 9.11924 40.2797 9.10019 40.0326 9.03435C39.9203 9.00627 39.808 8.95011 39.7518 8.86586C39.6675 8.78161 39.6114 8.69736 39.5833 8.58503L39.5271 8.16379V5.97333H38.9374V5.35551H38.9093Z" fill="#010101"/>
<path d="M10.2921 3.92309H6.58514L5.46183 0.356583L4.31044 3.92309H0.603516L3.60837 6.14163L2.45698 9.70814L5.43375 7.4896L8.46668 9.70814L7.34337 6.14163L10.3201 3.92309H10.2921Z" fill="#00B67A"/>
<path d="M7.53882 6.95613L7.28608 6.11365L5.43262 7.51778L7.53882 6.95613Z" fill="#005128"/>
</g>
</g>
</g>
<defs>
<clipPath id="clip0_101_143">
<rect width="40.4392" height="10.8223" fill="white" transform="translate(0.604492 7.62939e-05)"/>
</clipPath>
<clipPath id="clip1_101_143">
<rect width="40.4392" height="10.8223" fill="white" transform="translate(0.604492 0.000167847)"/>
</clipPath>
<clipPath id="clip2_101_143">
<rect width="40.4392" height="10.1098" fill="white" transform="translate(0.604492 0.356522)"/>
</clipPath>
</defs>
</svg>
