<svg width="19" height="16" viewBox="0 0 19 16" fill="none" xmlns="http://www.w3.org/2000/svg">
<path d="M13.8072 15.2134C13.6859 15.3084 13.5479 15.3775 13.401 15.4168C13.2541 15.4561 13.1012 15.4648 12.9511 15.4424C12.801 15.42 12.6566 15.367 12.5262 15.2863C12.3957 15.2056 12.2817 15.0989 12.1907 14.9722C12.0998 14.8455 12.0336 14.7014 11.996 14.548C11.9583 14.3946 11.95 14.235 11.9714 14.0782C11.9929 13.9215 12.0437 13.7707 12.1209 13.6344C12.1982 13.4981 12.3004 13.3791 12.4217 13.2841C14.2275 11.8697 15.262 10.4939 15.8543 9.29295C15.041 9.51158 14.1827 9.46018 13.3987 9.1459C12.6147 8.83162 11.944 8.27006 11.4796 7.5393C11.0153 6.80853 10.7806 5.94485 10.8079 5.06831C10.8353 4.19176 11.1235 3.3459 11.6325 2.6483C12.1414 1.95069 12.8458 1.43599 13.6477 1.17575C14.4497 0.915508 15.3094 0.922647 16.1072 1.19617C16.9051 1.4697 17.6016 1.99603 18.0998 2.702C18.5981 3.40796 18.8734 4.2585 18.8874 5.13539C19.0354 6.61619 18.834 8.11229 18.3009 9.49311C17.6116 11.309 16.2642 13.2889 13.8072 15.2134ZM3.41581 15.2134C3.29452 15.3084 3.15648 15.3775 3.0096 15.4168C2.86272 15.4561 2.70987 15.4648 2.55977 15.4424C2.40967 15.42 2.26527 15.367 2.1348 15.2863C2.00433 15.2056 1.89035 15.0989 1.79938 14.9722C1.70841 14.8455 1.64221 14.7014 1.60458 14.548C1.56695 14.3946 1.55862 14.235 1.58006 14.0782C1.60151 13.9215 1.65231 13.7707 1.72956 13.6344C1.80681 13.4981 1.909 13.3791 2.0303 13.2841C3.83609 11.8697 4.87061 10.4939 5.46291 9.29295C4.64965 9.51158 3.79137 9.46018 3.00737 9.1459C2.22336 8.83162 1.55259 8.27006 1.08828 7.5393C0.623972 6.80853 0.389193 5.94485 0.416578 5.06831C0.443962 4.19176 0.732149 3.3459 1.24109 2.6483C1.75002 1.95069 2.45442 1.43599 3.25637 1.17575C4.05832 0.915508 4.91798 0.922647 5.71587 1.19617C6.51376 1.4697 7.21023 1.99603 7.70848 2.702C8.20673 3.40796 8.482 4.2585 8.49604 5.13539C8.64399 6.61619 8.44261 8.11229 7.9095 9.49311C7.21905 11.309 5.8728 13.2889 3.41581 15.2134Z" fill="#F1C045"/>
</svg>
