<svg width="33" height="33" viewBox="0 0 33 33" fill="none" xmlns="http://www.w3.org/2000/svg">
<circle cx="16.5" cy="16.6365" r="16" fill="#FBF1D7"/>
<rect width="23" height="23" transform="matrix(0 -1 -1 0 28.5 27.6365)" fill="#FBF1D7"/>
<path fill-rule="evenodd" clip-rule="evenodd" d="M14.4412 10.7028C14.2393 10.9049 14.1259 11.1789 14.1259 11.4646C14.1259 11.7503 14.2393 12.0244 14.4412 12.2265L18.3512 16.1365L14.4412 20.0465C14.2508 20.2509 14.1471 20.5212 14.152 20.8005C14.157 21.0798 14.2701 21.3463 14.4676 21.5438C14.6652 21.7414 14.9317 21.8545 15.211 21.8595C15.4903 21.8644 15.7606 21.7607 15.965 21.5703L20.6368 16.8984C20.8387 16.6962 20.9521 16.4222 20.9521 16.1365C20.9521 15.8508 20.8387 15.5768 20.6368 15.3746L15.965 10.7028C15.7628 10.5009 15.4888 10.3875 15.2031 10.3875C14.9174 10.3875 14.6434 10.5009 14.4412 10.7028Z" fill="#7E796C"/>
</svg>
